<?xml version="1.0" encoding="UTF-8"?>
<svg id="Capa_1" data-name="Capa 1" xmlns="http://www.w3.org/2000/svg" viewBox="0 0 3156.98 1025.1">
  <defs>
    <style>
      .cls-1 {
        fill: #fff;
      }

      .cls-2 {
        fill: #0f619a;
      }

      .cls-3 {
        fill: none;
      }

      .cls-4 {
        fill: #aab3c0;
      }
    </style>
  </defs>
  <g id="Background">
    <g>
      <path class="cls-3" d="M3039.29,554.34c-.54-.64-1.09-1.27-1.69-1.91v.43c.3.11.95.68,1.69,1.47Z"/>
      <path class="cls-1" d="M1987.5,373.84c5,0,11.7-.4,15-1s8.7-2,12-3.1c3.3-1.1,7.6-2.7,9.5-3.6,2-.9,6.5-3.5,10-5.8,3.6-2.4,8.6-6.4,11.1-9.1,2.6-2.7,5.7-6.4,7-8.3,1.4-1.9,3-4.4,3.6-5.5.7-1.1,1.7-3.2,2.3-4.5.6-1.4,1.5-3.3,2-4.3.6-1,1.5-3.9,2.1-6.5.6-2.6,1.2-5.9,1.4-7.2.1-1.4.5-3,.8-3.5.3-.6,1-4,1.4-7.5.5-3.6.8-46.1.8-94.5v-88c-42.7-.5-53.6-.2-54,.4-.4.5-.7,39.5-.6,86.7,0,47.2-.3,88.3-.8,91.4-.5,3-1.1,6.1-1.3,7-.3.8-1,2.7-1.6,4.2s-2.7,4.3-4.7,6.3c-1.9,1.9-4.9,4.2-6.7,5.2-2.4,1.3-5.7,1.7-12.8,1.7s-10.3-.4-12.5-1.7c-1.6-.9-5-3.5-7.5-5.8-2.4-2.3-5.3-6.1-6.3-8.3-.9-2.3-2.2-7.3-2.8-11.1-.5-3.9-1.5-7.4-2.2-7.9-.6-.4-4.5-.5-8.7-.2-4.1.3-15,.6-24.2.6h-16.8c0,10.7,1.1,17.6,2.5,23.5,1.4,5.5,4.2,13.5,6.3,17.9,2.1,4.4,4.4,8.8,5.2,9.8.9,1,4.7,5,8.5,8.9,3.9,3.9,9.4,8.5,12.4,10.2,2.9,1.7,7.1,4.1,9.5,5.3,2.3,1.2,6.8,3.2,10.1,4.3,3.3,1.1,9.4,2.5,13.5,3,4.2.6,11.6,1,16.5,1Z"/>
      <path class="cls-1" d="M2046.7,789.94c-1-2.3-1.7-2.5-7.6-2.7-3.6-.1-7.6.2-9,.6h0s-2.5.7-2.5.7c.6,55.4.3,68.4-.5,73.9-.7,4.4-1.8,9.1-2.5,10.5-.7,1.3-2.4,3.4-3.7,4.6-1.2,1.2-4.1,2.9-6.3,3.8-2.2.9-6.7,1.6-10.2,1.6s-8.8-.7-11.8-1.5c-4.2-1.2-6.2-2.4-8.4-5.3-1.9-2.4-3.2-5.4-3.5-8.2-.3-2.5-.6-12.2-.7-21.5,0-9.4.3-25.4.7-35.5.6-15.2.4-18.8-.7-19.8-.9-.8-4.8-1.4-10.9-1.5l-9.5-.2c-1.1,9.3-1.5,27-1.7,45.5-.2,25.1,0,34.6,1,38,.7,2.4,2.5,6.9,4,9.9,1.5,2.9,4.1,6.7,5.8,8.5,1.8,1.7,6,4.5,9.5,6.3,3.5,1.7,8.2,3.7,10.4,4.4s7.8,1.3,12.5,1.3,9.6-.2,11-.4c1.4-.1,4.5-.9,7-1.6,2.5-.7,7.2-2.7,10.5-4.4,3.3-1.8,7.5-4.9,9.3-6.9,1.9-2,4.4-5.9,5.7-8.6,1.3-2.8,2.7-7.5,3.2-10.5.4-3.1.6-22,.4-42-.2-24.7-.7-37.3-1.5-39Z"/>
      <path class="cls-1" d="M1914.2,895.84c-.7-1.4-2.3-4.3-3.6-6.5s-5.4-10.1-9.1-17.5c-4.7-9.5-6.5-14.1-6.1-15.7.4-1.3,1.3-2.3,2.1-2.3.9,0,4.5-2.9,8-6.5,3.6-3.6,6.5-6.9,6.5-7.5,0-.5,1-3.1,2.2-5.7,1.7-3.9,2-5.9,1.5-10.8-.3-3.3-1.8-9.4-3.4-13.5-2.2-6-3.8-8.5-8.2-12.8-4.8-4.5-6.5-5.4-12.1-6.7-4.1-.9-16-1.6-32.5-2.1-14.3-.3-26.4-.3-26.9.2h0c-.5.4-.8,24-.7,57.1l.1,56.3h21c.4-22.8.5-31.6.5-34.2s.6-5.3,1.3-6c.9-.8,3.5-1.2,7.5-1,5.8.3,6.5.5,9.5,4,1.8,2,3.3,4.3,3.3,5s.4,1.2.9,1.2c.6,0,2.5,3.1,4.2,6.8s3.7,7.4,4.4,8.2c.6.8,2.6,4.2,4.4,7.5,1.7,3.3,3.7,6.8,4.4,7.8.9,1.4,3,1.7,12.3,2,6.1.1,11.5-.1,12-.5s.1-1.6-.7-2.5c-.9-1-2.1-2.9-2.8-4.3ZM1887.8,834.34c-1.2,1.7-2.3,3.1-2.3,3.3,0,.1-.7.4-1.6.5-.8.2-3.9.9-7,1.6-3,.6-9.3,1-22.5.6l-.5-14.9c-.4-12.2-.2-15.2,1-16.4h0c1.1-1.1,4-1.3,14-1,8.6.3,13.3.9,14.8,1.9,1.3.7,3.2,3.2,4.3,5.4,1.2,2.6,1.9,6.2,2,10,0,4.7-.5,6.7-2.2,9Z"/>
      <path class="cls-1" d="M1944.3,590.14c-1.6-3.3-5.3-8.2-8.8-11.7-3.4-3.3-7.4-7-9-8.1s-5.9-3.4-9.5-5.1c-3.5-1.8-11.6-4.8-18-6.7-6.3-2-15.3-4.5-20-5.6-4.6-1.2-10.5-3-13-4.2-2.4-1.2-6.2-4-8.3-6.2-2.2-2.5-4-5.6-4.3-7.6-.4-2-.3-5.5,0-7.8.4-2.3,1.7-5.7,2.9-7.5,1.2-1.7,4-4.4,6.2-5.9,2.9-2.1,5.7-3,10-3.4,4-.4,8.3,0,12.5,1,3.6.9,7.2,2.1,8,2.8.8.7,2.5,2.2,3.9,3.3,1.3,1,2.9,3.1,3.6,4.5.7,1.3,1.6,4.3,1.9,6.5.4,2.2,1.4,4.8,2.4,5.7,1.6,1.7,3.6,1.8,21.9,1.5,11.1-.1,20.5-.5,20.8-.7.4-.3.2-3-.5-6-.6-3.1-2.3-8.7-3.6-12.5-1.4-3.9-4.1-9.5-6.1-12.5-2-3.1-6.1-7.9-9.2-10.8-3-2.9-7.8-6.4-10.6-7.7-2.7-1.3-8.1-3.3-12-4.4-3.8-1.1-9.7-2.5-13-3.1s-10.2-1-15.5-.9c-5.2,0-11.9.5-15,1h0c-3,.4-7.9,1.5-11,2.3-3,.9-7.5,2.6-10,3.8-2.4,1.3-5.8,3.2-7.5,4.3-1.6,1-5.3,4.1-8.1,6.9-2.9,2.8-6.7,8.1-8.8,12.1-1.9,3.8-3.6,7.7-3.6,8.7s-.3,1.9-.7,2.2c-.4.2-.9,5-1.1,10.7-.2,7.4.1,12.3,1.4,17.4.9,3.8,2.9,9.4,4.3,12.4,1.5,3,5.4,8.1,8.7,11.5,3.5,3.4,9.1,7.6,13,9.7,3.8,2,13.7,5.7,21.9,8.3,8.3,2.6,18.4,5.9,22.5,7.3,4.2,1.3,8.7,3,10,3.7,1.4.6,4,2,5.8,3.1s3.5,2.7,3.7,3.7c.3,1,1,1.8,1.5,1.8.6,0,1.5,1.4,2.1,3.2.5,1.8,1,4.9,1,7-.1,2.1-.5,4.9-1.1,6.3-.5,1.3-2.6,4.3-4.7,6.5-2.3,2.5-5.7,4.8-9,6-2.9,1.1-8.1,2.2-11.5,2.6-4.4.4-8,.1-12.3-1-4.1-1.2-7.5-3-11-6-3.2-2.9-5.8-6.2-7.3-9.8-1.3-2.9-3-6.5-3.7-7.8l-1.3-2.5h-39.7c.2,10,1.2,16,2.4,19.7s3.5,9.1,5.3,12c1.7,2.9,5.6,7.7,8.7,10.6,3.1,3,8.6,7,12.1,9,3.6,1.9,9.9,4.5,14,5.7,4.2,1.2,13.6,2.7,21,3.4,10.3.9,15.7.9,22.5,0,5-.6,9.3-1.3,9.5-1.5.3-.1,2.1-.6,4-.9,2-.4,6.8-2.1,10.7-3.9,3.9-1.7,8.4-4.1,9.9-5.1,1.5-1.1,4.6-3.7,6.9-5.7,2.2-2,6-6.5,8.3-10,2.4-3.5,5.3-9.3,6.4-12.8,1.2-3.6,2.3-10.4,2.6-15,.3-5.8-.1-10.7-1.2-15.3-.8-3.7-2.8-9.3-4.3-12.5Z"/>
      <path class="cls-1" d="M1228.5,281.94c.5-1.3,4.9-1.7,27.8-2.2,15-.4,29-1.2,31.2-1.8,2.2-.6,4.9-1.3,6-1.4,1.1-.2,5.4-1.6,9.5-3.1,4.2-1.5,9.6-3.9,12-5.3,2.5-1.5,4.7-3,4.8-3.5.1-.4.9-.7,1.7-.7.9,0,5.7-4.2,10.8-9.3,7.1-7.1,10.2-11.1,13.4-17.2,2.2-4.5,4.9-11.2,5.9-15,1.4-5.4,1.9-10.6,1.9-22s-.5-16.8-1.8-22c-1.1-3.9-3.2-9.7-4.7-13-1.6-3.3-4.6-8.7-6.8-12-2.2-3.3-5.5-7.6-7.3-9.6-1.9-1.9-5-4.5-7.1-5.7-2.1-1.3-3.8-2.7-3.8-3.2,0-.6-.6-1-1.5-1-.8,0-1.5-.5-1.5-1,0-.6-.7-1-1.7-1s-2.9-.8-4.3-1.9c-1.3-1-4.5-2.4-7-3.1-2.4-.6-8.1-2-12.5-3.1-4.4-1-12.9-2.3-19-2.9-6-.6-21.3-1.2-34-1.4-12.6-.2-32.9-.1-45,.2l-22,.7-.5,248.5h55c0-66.3.2-86.2.5-87ZM1228.2,199.04c.3-16.7.9-30.8,1.2-31.3.19-.24,2.24-.46,5.4-.62-3.2-.01-5.34-.2-5.2-.48.3-.5,7.1-.7,15.2-.6,8.1.1,12.5.3,9.7.5-1.59.06-4.64.19-8.03.3.41,0,.81,0,1.23,0,10.2,0,20.3.5,23.7,1.2,3.3.7,8.3,2.6,11,4.3,3.3,2,6.4,5.1,9.1,9,2.5,3.8,4.5,8.2,5.3,12,1.1,4.8,1.1,7.5.1,13.5-.8,4.9-2.3,9.4-4.3,12.9-1.7,3-4.7,6.7-6.7,8.3-1.9,1.5-5.9,3.5-9,4.4-3.8,1.1-11.7,1.8-46.8,2.9l-1.2-3c-.9-2.2-1-11.2-.7-33.3Z"/>
      <path class="cls-1" d="M2167.1,876.34c-2.5,1.7-6.5,3.9-9,4.8-2.5,1-7.2,1.8-10.5,1.8s-8.5-.7-11.5-1.7c-4.3-1.3-6.6-2.8-10.8-7.2-2.9-3.1-6.3-7.9-7.7-10.6-1.4-2.9-3-8.7-3.6-13.5-.9-6.1-.9-10.1-.2-14,.6-3.1,2-7.6,3.1-10,1.1-2.5,3.8-6.1,5.9-8,2.1-2,5.2-4.5,6.8-5.7,1.7-1.1,5.6-2.8,8.8-3.7,3.1-.9,7.4-1.6,9.5-1.6s6,.6,8.7,1.4c2.8.8,6.5,2,8.3,2.7,1.8.8,3.2,1.7,3.2,2.1s1.6,1.7,3.5,2.8,3.5,2.4,3.5,3c0,.5.6,1.5,1.3,2.2s2.8,2.1,4.7,3.1c2.7,1.3,5.3,1.7,11,1.5,6.6-.3,7.5-.6,7.8-2.3.2-1.1-1.1-5-2.8-8.5-1.7-3.6-3.7-7.2-4.4-8-.7-.9-3.5-3.8-6.2-6.6-2.9-2.9-7.6-6.3-11.4-8.2-3.6-1.7-9.4-3.8-13-4.7-3.6-.8-10.3-1.4-15-1.4-4.7.1-9.5.4-10.8.7h0c-1.2.3-4.6,1.2-7.5,2.1-2.8.8-5.4,1.5-5.7,1.6s-1.4.5-2.5,1c-1.1.4-3.6,2-5.5,3.3-1.9,1.4-5.7,4.9-8.5,7.7-2.7,2.8-6.8,8.7-9.1,13.1-2.3,4.3-4.9,11.1-5.8,15.1-.9,4-1.6,10.3-1.6,14s.5,8.8,1,11.3c.6,2.4,1.8,6.9,2.7,10,1,3,3.5,7.8,5.5,10.7,2.1,2.9,3.8,5.7,3.8,6.3,0,.5.4,1.1,1,1.2.5.2,3.3,2.6,6.2,5.4,3,2.9,8.5,6.6,12.8,8.7,4.1,2,10,4.1,13,4.8,3.2.6,9.1.9,14,.6,5.5-.3,11.5-1.5,17-3.4,5.6-1.9,10.8-4.6,15.3-7.8,3.8-2.9,8.6-7.6,11.1-11,2.3-3.3,4.6-6.6,4.9-7.3.4-.7,1-3.3,1.5-5.9l.7-4.6-21.6.8c-5.7,6.8-9.4,10.2-11.9,11.9Z"/>
      <path class="cls-1" d="M1826.5,354.54c2.8-1.7,5.2-3.4,5.5-3.7s2.3-1.9,4.5-3.5c2.2-1.7,8-7.1,13-12.1,4.9-5,11.1-12.2,13.7-16,2.5-3.8,6.3-10.5,8.3-14.9s4.3-9.1,5-10.5,1.6-4.3,2-6.5,1.1-4.7,1.5-5.5c.5-.8,1-2.8,1.2-4.5.3-1.7.7-3.4,1.1-4,.3-.5.8-3.5,1.2-6.5s.9-10.4,1.2-16.5c.4-7.4,0-15.1-1.2-23.5-.9-6.9-2.7-16.5-4-21.5-1.2-4.9-3.3-11.5-4.5-14.5s-3.5-8.2-5.2-11.5c-1.6-3.3-4.6-8.5-6.6-11.5-2.1-3-6.2-8.1-9.2-11.4-3-3.2-7.3-7.5-9.4-9.5-2.2-2-4.7-4.3-5.6-5.1-.8-.8-3.4-2.7-5.5-4.2-2.2-1.5-4.4-2.8-5-2.8s-2.3-1.1-4-2.3c-1.7-1.2-4.1-2.8-5.5-3.4-1.4-.6-5.9-2.5-10-4.2-4.1-1.6-12.2-4.1-18-5.5-5.8-1.4-15.2-3-21-3.6-5.8-.5-13.4-1-17-.9-3.6.1-9.9.5-14,1h0c-4.1.4-10.9,1.5-15,2.4s-7.9,1.8-8.5,1.9c-.6.2-2.1.8-3.5,1.3-1.4.6-6.1,2.6-10.5,4.4-4.4,1.9-9.6,4.4-11.5,5.6-1.9,1.3-3.8,2.3-4.2,2.3-.5,0-2.7,1.4-5,3.1-2.4,1.6-5.6,3.9-7.3,4.9-1.7,1.1-7.1,6.1-12.1,11.2-5,5.1-10.1,10.9-11.4,12.8-1.3,1.9-2.7,3.7-3,4-.3.3-1.9,2.8-3.5,5.5-1.7,2.8-3.8,6.6-4.7,8.5-.9,1.9-2.8,6.4-4.3,10-1.5,3.6-2.9,7.4-3.1,8.5-.2,1.1-1.1,4.7-1.9,8-.9,3.3-2.3,11.8-3.1,19-1.1,8.9-1.4,16.5-.9,24,.3,6.1,1.5,15.3,2.5,20.5,1.1,5.2,3.4,13.8,5.1,19,1.8,5.2,5.3,13.5,7.8,18.5,2.5,4.9,5.6,10.1,6.9,11.5,1.2,1.4,2.3,2.8,2.2,3.3,0,.4,4.8,5.6,10.8,11.5,5.9,5.9,13.4,12.6,16.7,14.8,3.3,2.2,9.6,5.8,14,8,4.4,2.2,10.5,5,13.5,6.2,3,1.2,8.9,3,13,4.1,4.1,1,13.3,2.5,20.5,3.2,10.6,1,15.6,1,27,0,7.7-.7,17.2-2.2,21-3.2s8.1-2.2,9.5-2.5,4.8-1.4,7.5-2.5c2.8-1.1,7.9-3.4,11.5-5.1,3.6-1.6,8.8-4.4,11.5-6.1ZM1805.2,306.84c-2.8,2.5-6.3,5.4-7.9,6.6-1.5,1.2-4.7,3.1-7,4.3-2.4,1.1-5.1,2.2-6,2.4-1,.1-2.2.5-2.8.9s-2.1.9-3.5,1.1c-1.4.3-3.7,1-5.2,1.6-1.6.6-3.8,1.1-5,1-1.3,0-5.7.3-9.8.6-4.2.4-11.6.2-16.7-.4s-11.4-1.8-14-2.7c-2.7-.8-5.9-2-7.3-2.7-1.3-.7-4.7-2.7-7.5-4.6-2.7-1.8-5.9-4.1-7-5-1.2-.9-4-4.1-6.4-7.1-2.4-3-5.8-8.4-7.6-12s-4.5-10.1-6-14.5c-1.4-4.4-3-11.2-3.5-15s-.9-11.7-.9-17.5c-.1-5.8.4-13.4.9-17,.6-3.6,1.2-7.2,1.4-8,.1-.8.5-2.2.8-3,.3-.8,1.4-3.7,2.4-6.5,1-2.7,2.2-5.9,2.8-7s2.8-4.5,4.8-7.5,6-8,9-11c2.9-3,6.7-6.4,8.3-7.6,1.7-1.2,5.7-3.5,9-5.1,3.3-1.7,9.6-3.8,14-4.7,4.4-.8,10-1.7,12.5-2h0c2.5-.2,8.8-.2,14,.1,5.2.2,12.2,1.1,15.5,1.9,3.3.9,8.9,2.9,12.5,4.6s8.3,4.5,10.5,6.2c2.1,1.7,5.7,4.9,8,7.1,2.2,2.2,5.8,6.7,8.1,10,2.2,3.3,4.8,7.6,5.6,9.5.9,1.9,2.3,5.5,3.1,8s2.1,7,2.8,10,1.3,12,1.3,20c.1,8-.2,17.1-.6,20.3-.5,3.1-1.2,6.5-1.8,7.5-.5.9-.7,1.9-.5,2.2.3.3-.2,2.3-1.1,4.5-.8,2.2-2.7,6.5-4.1,9.5-1.4,3-4.2,8-6.3,11s-6,7.5-8.8,10Z"/>
      <path class="cls-1" d="M2116,662.84c2.5-1.3,6.6-3.7,9-5.3,2.5-1.7,7.4-5.8,10.9-9.1s8.1-8.3,10.1-11c2-2.8,5.2-7.7,7-11,1.9-3.4,4.6-9.6,6.2-14,1.5-4.5,2.6-8.3,2.3-8.5-.2-.3,0-1,.5-1.5.5-.6,1.2-2.8,1.6-5,.4-2.2,1.2-8.1,1.7-13,.8-6.6.8-11.9,0-19.5-.7-5.8-2.3-14.4-3.7-19-1.3-4.7-4.5-12.8-7.1-18-2.6-5.3-6.7-12-9-15-2.3-3.1-7.3-8.5-11.1-12-3.9-3.6-8.3-7.5-9.9-8.6-1.6-1.1-5.4-3.2-8.5-4.6-3-1.4-8.4-3.5-12-4.7-3.5-1.1-10.3-2.8-15-3.6-5.7-1.1-13-1.6-22.5-1.4-9.9.1-16,.8-21,2.1-3.8,1-10.3,3.3-14.5,5.1-4.1,1.8-11.3,5.8-16,8.9-4.6,3-11.2,8.4-14.5,11.9-3.4,3.5-7.6,8.6-9.5,11.4-1.9,2.7-5.2,9-7.3,14-2.3,5.1-4.9,13.4-6.1,19.5-1.8,9.2-2,12.6-1.4,28.5.4,13.5,1.1,19.9,2.7,26,1.2,4.4,4.6,13,7.6,19.2,3.1,6.2,6,11.3,6.5,11.3.6,0,1.2.7,1.5,1.7.2,1,2.8,4.2,5.7,7.3,3,3,7.1,6.8,9.3,8.4,2.2,1.6,4.5,3.4,5,4,.6.6,2.6,1.9,4.5,3,2,1,4.2,2.2,5,2.7.9.4,4,1.8,7,3.2,3.1,1.3,8.5,3.2,12,4.1,3.8.9,12.8,1.9,21.5,2.2,9.4.4,18,.2,23-.5,4.4-.7,11.6-2.5,16-4,4.4-1.6,10.1-3.9,12.5-5.2ZM2093.9,632.04c-3,1.4-7.3,3-9.5,3.6-2.2.6-8.7,1.1-14.5,1.2-8.2.1-12-.4-17.5-2.1-3.8-1.2-9.6-4-12.8-6.3-3.5-2.4-7.6-6.5-10.1-10.1-2.3-3.3-5.2-8.5-6.5-11.5-1.3-3-3-7.5-3.8-10-1.1-3.2-1.6-9.6-1.8-22-.1-9.6.1-18.4.6-19.5.4-1.1,1.7-4.5,2.9-7.5s3.4-7.3,4.9-9.5c1.4-2.2,4-5.5,5.6-7.4,1.7-1.8,5.3-5,8-7.1,2.8-2,7.3-4.4,10-5.3,2.8-1,6.6-2.1,8.5-2.6h0c2-.5,6.8-1,10.8-1,4-.1,10.4.6,14.2,1.4,3.9.8,10,3,13.7,4.8,3.6,1.7,8.4,5.1,10.7,7.4,2.3,2.4,5.8,7.1,7.9,10.5,2.1,3.5,4.4,8.6,5.2,11.3.8,2.8,2,8.8,2.6,13.5.7,4.7.9,12.5.6,17.5s-1.3,11.9-2.2,15.5c-1,3.6-2.7,8.5-4,11-1.2,2.5-3.6,6.5-5.2,9-1.7,2.5-4.8,6-6.9,7.8-2.1,1.8-4.3,3.6-4.9,4.1-.5.4-3.4,1.9-6.5,3.3Z"/>
      <path class="cls-1" d="M1549.9,789.54c-.7-.3-5.9-.7-11.5-1l-10.3-.6-.5,72c-5.8-7.8-7.5-10.5-7.5-11,0-.6-.3-1-.7-1-.5,0-1.9-1.7-3.3-3.8-1.4-2-3-4.1-3.7-4.5s-1.3-1.4-1.3-2.2c0-.9-.6-2.1-1.4-2.8-.7-.7-4.2-5.5-7.7-10.7-3.5-5.3-8.5-12.5-11.1-16-2.7-3.6-5.9-7.9-7.3-9.5-1.4-1.7-3.4-4.3-4.5-5.8s-3.3-3.4-5-4.2c-1.7-.9-5.7-1.5-9-1.5-5.1,0-6.1.3-7.2,2.2h0c-1,1.8-1.2,14.3-1,57.5l.2,55.3h20c.9-20.6,1-37,.9-49.8-.2-12.8-.2-23.2.1-23.2s1.5,1.2,2.8,2.5c1.2,1.4,2.2,3.1,2.2,4,0,.8.7,1.7,1.5,2,.8.2,1.5.9,1.5,1.5,0,.5,1.2,2.9,2.8,5.2,1.5,2.3,3.7,5.3,5,6.7s2.5,3.4,2.7,4.3c.3,1,1,1.8,1.5,1.8.6,0,1,.6,1,1.5,0,.8.5,1.5,1,1.5.6,0,1,.6,1,1.5,0,.8.5,1.5,1,1.5.6,0,2,1.7,3.3,3.7,1.2,2.1,3.2,4.9,4.5,6.3,1.3,1.3,2.5,3.3,2.7,4.2.3,1,1,1.8,1.5,1.8.6,0,2.1,2,3.5,4.5,1.4,2.4,2.8,4.5,3.3,4.5.4,0,1.6,1.4,2.7,3.2s3.3,4.7,5,6.4c1.6,1.7,4,3.7,5.3,4.3,1.2.6,5.2,1.4,8.8,1.8,5.3.6,6.7.5,7.4-.7.6-.9,1-24.4,1-57.3,0-43.7-.3-55.8-1.2-56.1Z"/>
      <path class="cls-1" d="M1457.9,634.84c.4,0,4.6,5.7,9.2,12.7,4.7,7,9.4,13.8,10.5,15.2,1.1,1.3,3.3,3.7,4.8,5.3l2.7,2.9h35.5c1.2-17.5,1.5-59.7,1.5-105s-.3-83.1-.7-83.7c-.5-.9-5.8-1.3-16.8-1.5-8.8-.2-17.8-.1-20,.2h0s-4,.5-4,.5c0,115.4,0,117.3-1.8,115.6-1-.9-3.2-3.9-5-6.6-1.7-2.8-3.7-5.6-4.4-6.3s-1.3-1.9-1.3-2.7c0-.9-.6-1.9-1.3-2.3-.7-.4-13.9-19.6-29.3-42.5-15.3-23-29.2-43.8-30.9-46.2-1.6-2.4-4.1-5.5-5.5-7-2.3-2.4-3.1-2.6-10.5-2.6-4.4,0-13,.4-19.2.8l-11.3.8v188.5c34.8,0,39.6-.3,39.7-1.3.2-.7.6-27.5,1-59.5.33-25.2.76-42.71,1.18-51.55-.89-.26-.98-1.09-.98-3.25s.5-3.5,1.3-3.5c.08,0,.19.03.3.1.6,0,1.5,1,2.1,2.2.5,1.2,2.3,4.7,4,7.8,1.6,3,3.3,5.6,3.7,5.7.4.1.7.9.7,1.8,0,.8.4,1.4.8,1.4s2.2,2.1,3.9,4.8c1.8,2.6,3.3,5.3,3.3,6s.5,1.3,1,1.3c.6,0,2.2,2,3.5,4.5,1.4,2.4,3,4.5,3.5,4.5.6,0,1.3,1.1,1.5,2.5.3,1.3.9,2.4,1.3,2.4s2.7,3,5.2,6.8c2.4,3.7,5.2,7.5,6.2,8.5s1.8,2.4,1.8,3.3c0,.8.5,1.5,1,1.5.6,0,1,.4,1,1,0,.5,1.2,2.2,2.6,3.7,1.3,1.5,2.7,3.8,3,5,.2,1.2.9,2.3,1.4,2.3.6,0,1,.6,1,1.5,0,.8.5,1.5,1,1.5.6,0,1,.6,1,1.5,0,.8.4,1.4.8,1.4Z"/>
      <path class="cls-1" d="M1410.4,815.94c-1.9-3.1-3.4-5.8-3.4-6,.1-.3-3-3.5-6.7-7.2-3.7-3.6-8.9-7.7-11.7-9.1-2.7-1.4-7.9-3.5-11.5-4.7-4.7-1.6-9.5-2.3-17.5-2.5-6-.2-12.1,0-13.5.5-1.4.4-5.2,1.6-8.5,2.6s-8,2.9-10.5,4.2c-2.5,1.4-6.2,4.1-8.4,6.1-2.1,2-5.5,5.8-7.5,8.6-2,2.7-4.4,6.5-5.3,8.5-.9,1.9-2.4,6.2-3.2,9.5-.9,3.3-1.9,9.3-2.2,13.5-.4,4.1-.1,11.5.5,16.5.9,6.6,2.2,10.9,4.8,16.5,2.7,5.4,5.6,9.4,10.7,14.5,4.2,4.1,9.4,8.1,12.6,9.6,3,1.5,8,3.5,11,4.5,4,1.3,8.5,1.8,16.5,1.7,6.1,0,12.8-.5,15-1.1,2.2-.7,4.2-1.1,4.5-1.1s3.4-1.4,7-3.1c3.6-1.7,7.6-3.8,9-4.8,1.4-.9,5.2-4.4,8.5-7.7,3.6-3.6,7.5-8.9,9.8-13.3,2-4,3.5-7.6,3.2-8s0-1.2.5-1.7c.6-.6,1.3-6.7,1.7-13.5.4-8.6.1-14.9-.8-20-.9-5-2.5-9.4-4.6-13ZM1394.5,847.84c-.4,4.5-1.8,9-4.5,14.5-2.7,5.6-5.3,9.3-8.7,12.3s-6.8,4.9-11.4,6.3c-3.5,1.1-9.3,1.9-12.7,1.9s-8.4-.5-11-1.2c-2.6-.6-6.1-2-7.8-3.2-1.6-1.1-4.2-3.4-5.8-5.1-1.6-1.6-4.7-6.8-6.9-11.5-3.7-7.7-4.1-9.4-4.3-17.5-.3-8,0-9.6,2.4-14.7,1.4-3.1,5.1-8.2,8.1-11.2,3-3.1,6-5.6,6.7-5.6.6,0,1.9-.7,2.8-1.5.8-.8,3.9-2.1,6.8-2.9h0c2.9-.8,7.3-1.5,9.7-1.5,2.5-.1,7.1.6,10.3,1.4s7.9,2.9,10.5,4.7,5.6,4.1,6.6,5.2c1,1.2,2.9,3.9,4.2,6.1s3.1,6.9,4,10.5c1.2,4.6,1.5,8.4,1,13Z"/>
      <path class="cls-1" d="M2301.1,670.04l12.5-.6c.2-7,.4-14.4.6-21l.4-12c-58.9-.5-72.3-1-73-1.6-.6-.7-1.2-28.5-1.5-77.2l-.5-76.2c-13.9-.1-23.3,0-29.7.1h0l-11.8.4c0,27.5,0,69.9.1,112,0,42,.2,76.7.5,77,.3.2,20.7.3,45.3.1,24.5-.2,50.3-.7,57.1-1Z"/>
      <path class="cls-1" d="M1713.6,627.94c1.6-3.1,3.6-7.9,4.7-10.8,1-2.9,1.6-5.2,1.3-5.2-.2,0,.2-1.7,1.1-3.8.8-2.1,1.3-4,1-4.2-.3-.3-.1-1.2.4-2,.5-.9,1.2-4,1.5-7,.3-3.1.9-9.6,1.2-14.5.4-6,0-12.7-1.1-20-.9-6.1-2.6-14.2-3.7-18-1.2-3.9-3.7-10.2-5.6-14-1.9-3.9-5-9.3-6.8-12-1.8-2.8-5.1-7-7.4-9.3-2.2-2.3-4.4-4.3-4.8-4.3s-2.6-1.5-4.8-3.5c-2.2-1.9-6.2-4.6-9-5.9-2.7-1.3-8.3-3.6-12.5-4.9-4.1-1.4-10.6-3.3-14.5-4.2-5.8-1.4-14.1-1.8-49.1-2.2l-42.2-.4-.1,94.1-.1,94.1c84.6-.7,93.6-1,98.5-2.3,3.3-.9,9.2-2.9,13-4.5,3.9-1.6,10.2-4.9,14-7.5,3.9-2.5,9.3-7,12.1-9.9s6.2-6.9,7.6-8.8c1.4-2,3.8-6,5.3-9ZM1683.5,583.84c-.4,4.1-1,8-1.3,8.5-.4.6-.8,2.1-.9,3.5-.2,1.4-.6,3.2-1,4s-.8,2.3-1,3.3c-.2.9-1.2,3.4-2.2,5.5-1.1,2-3.6,5.7-5.7,8.2-2,2.5-6,6-8.8,7.9-2.9,1.8-6.7,3.9-8.7,4.6-1.9.8-6.4,1.8-10,2.4-3.5.6-13.9,1.1-39.5,1.1l-.7-4.7c-.4-2.7-.8-27.5-.8-55.3.1-27.8.3-51.5.7-52.7.5-2.3.8-2.3,15.2-2.3,8,0,17.3.4,20.6,1,3.3.5,9.1,2,12.9,3.2,4,1.4,9.1,4,12.2,6.6,3,2.3,7,6.6,8.9,9.5,2,2.8,4.7,8.6,6.1,12.7,1.4,4.1,3,11.6,3.6,16.5.6,5,.8,12.4.4,16.5Z"/>
      <path class="cls-1" d="M1707.8,793.14c-.3,2.9-.2,7.3.1,9.8l.7,4.5c20.9.7,27.6,1.3,28.3,1.7.9.6,1.2,10.9,1.2,46s.3,45.6,1.2,46.5c.8.8,4,1.3,8.8,1.3,4.1,0,8.5-.3,9.8-.5l2.2-.5c0-23.88.02-42.14.06-55.88-.13-3.55-.29-8.34-.36-12.52-.2-5.82,0-10.57.48-10.69.08-9.8.19-13.7.32-13.91.3-.6,6.3-1,15-1,12,0,14.6-.3,15-1.5.3-.9.5-5.4.5-10v-8.5h-82.7l-.6,5.2Z"/>
      <path class="cls-1" d="M1240.2,867.14c-.5,1.3-2.8,4.1-5.2,6.3-2.4,2.2-6.9,5.3-9.9,6.8-4.8,2.5-6.6,2.8-15,2.8-7.5.1-10.5-.4-14-2-2.5-1.1-6.8-4.4-9.6-7.3-2.8-2.9-6.3-7.8-7.7-10.8-1.4-3.1-3.1-7.3-3.6-9.5-.6-2.2-1.1-6.5-1.2-9.5-.1-3.1.4-7.6,1.1-10,.7-2.5,2-6.1,3-8,1-2,3.8-5.4,6.2-7.8,2.4-2.3,5.4-4.9,6.8-5.7s3.6-2,5-2.6c1.4-.7,3.2-1.4,4-1.6.8-.2,4.2-.7,7.5-1,4-.4,8.3-.1,13,1.1,5.3,1.2,8.3,2.6,12,5.7,2.8,2.3,5.8,5.3,6.8,6.7.9,1.5,3,3.3,4.5,4,1.9.9,5,1.2,10.5.8l7.7-.6c.1-5.1-.6-7.2-1.5-8-.9-.9-1.6-2-1.6-2.5,0-.6-1.6-3.5-3.6-6.5-2.1-3.1-4.6-6.4-5.8-7.5-1.1-1.1-3.8-3.4-6-5.1-2.2-1.7-7.4-4.4-11.5-6-6.9-2.6-8.6-2.8-21.5-2.9-11.7-.1-15,.2-20.1,1.9h0c-3.4,1.1-6.7,2.5-7.5,3.1s-2.7,1.7-4.3,2.5c-1.6.8-4.5,3-6.5,5-2,1.9-5,5.3-6.7,7.5s-4.6,6.9-6.5,10.5c-1.8,3.5-3.5,7.6-3.7,9-.2,1.3-.7,3.1-1.2,4-.5.8-.7,8-.6,16,.2,11.7.7,15.4,2.3,19.5,1.1,2.7,2.8,6.8,3.9,8.9,1,2.2,3,5.4,4.4,7,1.4,1.7,4.3,4.8,6.5,7,2.2,2.3,5.2,4.9,6.5,6,1.4,1.1,4.8,3,7.5,4.2,2.8,1.3,8.4,3.1,12.5,4,5.4,1.2,9.9,1.5,16,1.1,4.7-.3,9.9-1.1,11.5-1.7,1.7-.7,4.1-1.4,5.5-1.7s5.6-2.1,9.3-4.2c3.7-2,9.4-6.1,12.5-9.1,3.1-3.1,6.9-8,8.5-11,1.5-3.1,2.7-7.1,2.7-9v-3.5c-12,1.1-17,1.5-18.7,1.5-2.5,0-3.5.5-4.2,2.2Z"/>
      <path class="cls-1" d="M1671.4,849.34c-1.6-1.9-4.8-4.8-7.3-6.4-2.5-1.6-7.6-4.1-11.5-5.5-3.8-1.4-9.9-3.2-13.5-4s-7.7-1.9-9.2-2.5c-1.6-.6-3.4-1.5-4-2-.7-.6-2.6-2.1-4.3-3.4-2.3-1.8-3.2-3.5-3.8-7.2-.7-4.4-.5-5.2,1.5-7.3,1.3-1.3,3.8-3,5.6-3.8,1.7-.7,5.6-1.3,8.5-1.3,2.8-.1,6.8.5,8.7,1.1,1.9.7,4,1.7,4.5,2.3.6.6,1.7,2.3,2.5,3.8.8,1.6,2.9,3.3,4.5,3.8,1.7.6,5,1,7.5,1s6.1-.5,8-1c1.9-.6,3.8-1.6,4.2-2.3s.8-2.5.8-4-1.6-5-3.6-8c-2-2.9-5.1-6.5-6.8-8.1s-5.1-3.8-7.6-4.9c-2.5-1.1-6.7-2.6-9.5-3.4-2.7-.7-8.6-1.3-13-1.2-4.4,0-10.4.7-13.2,1.4h0c-2.9.8-7.4,2.5-10,3.9-2.7,1.3-6.3,4.1-8.2,6.2-1.8,2.1-4.3,5.9-5.4,8.4-1.2,2.6-2.2,7.5-2.5,11.5-.3,5.4.1,8.2,1.7,12.5,1.2,3.3,3.9,7.5,6.8,10.6,2.6,2.8,6.4,5.9,8.3,7s7.3,3.4,12,5.2c4.7,1.7,10.8,3.6,13.5,4.3,2.8.6,6.2,1.8,7.8,2.5,1.5.8,4.3,2.7,6.2,4.4,3,2.5,3.5,3.6,3.5,7.2,0,2.4-.8,5.6-1.8,7.3-1.4,2.2-3.3,3.5-7.8,4.9-4.3,1.3-7.4,1.7-11.4,1.2-3-.3-7.9-1.4-10.9-2.3-5.1-1.7-5.5-2.1-7-6.6-.9-2.6-2.3-5.2-3.1-5.7-.8-.6-4.6-1-8.5-.9-3.8,0-8.1.4-9.5.8-1.8.5-2.6,1.4-2.8,3.6-.2,1.8.9,5.4,2.6,9,1.6,3.3,4.5,7.6,6.3,9.5,1.9,2,5.7,5,8.4,6.7,2.8,1.8,7.9,3.9,11.5,4.8,4.7,1.2,9,1.5,15.5,1.2,5-.3,10.1-.7,11.5-1s3.9-1,5.5-1.5c1.7-.5,5.9-2.6,9.4-4.8s7.6-5.5,9.1-7.4c1.5-2,3.7-5.6,4.8-8,1.3-2.9,2-7,2.1-11.5.2-5.2-.3-8.3-1.8-11.8-1.2-2.6-3.3-6.3-4.8-8.3Z"/>
      <path class="cls-1" d="M2320.6,787.44c-41.1-.1-59.7,0-68,.2h0s-15,.3-15,.3c-1.2,7.3-1.5,11.3-1.5,13.5-.1,2.2.5,4.5,1.2,5.1.8.8,6.3,1.3,14.5,1.5,7.2.2,13.5.7,14,1.2.4.5,1,21.6,1.3,47l.5,46.2c16.9-.4,20.2-.9,20.7-1.7.4-.8.8-21.5.8-46.1,0-41.6.1-44.8,1.8-45.6.9-.5,7.8-.9,15.2-1.1,7.4-.1,13.8-.5,14.3-.8.4-.4.6-5,.5-10.2l-.3-9.5Z"/>
      <path class="cls-1" d="M2946.5,631.94c2.3-3.6,5.6-9.5,7.4-13,1.7-3.6,3.3-7.5,3.6-8.5.2-1.1.9-3.4,1.5-5,.6-1.7.8-3.3.6-3.5-.3-.3-.1-1,.4-1.5.5-.6,1.3-3.7,1.7-7,.5-3.3.8-12.1.7-19.5-.1-10.5-.6-15.6-2.3-22.5-1.3-5-4-12.9-6-17.5-2-4.7-5.7-11.5-8.1-15-2.5-3.6-5.6-7.9-7-9.5-1.3-1.7-3.8-4.4-5.5-6-1.6-1.7-4.6-4.4-6.5-6-1.9-1.7-4.9-4.1-6.7-5.3-1.8-1.2-3.5-2.2-3.8-2.2-.2,0-2.8-1.1-5.7-2.5-2.9-1.3-7.5-3.2-10.3-4.1-2.7-.9-8.1-2.3-12-3.1-3.8-.8-12.8-1.7-20-1.8-7.1-.2-14.5-.2-16.5.1h0c-1.9.2-7.3,1.4-12,2.5-4.6,1.2-12.7,4.1-18,6.6-5.2,2.5-10.1,5.2-10.8,5.9-.7.7-1.7,1.4-2.1,1.4s-4.5,3.4-9.1,7.7c-4.5,4.3-9.6,9.8-11.3,12.3-1.7,2.4-3.3,4.7-3.6,5-.3.2-1.8,2.7-3.3,5.5-1.4,2.7-3.8,8.1-5.3,12-1.5,3.8-2.8,8.1-3,9.5-.2,1.3-.8,4.5-1.4,7-.6,2.4-1.3,9.4-1.7,15.5-.4,6.6-.2,14.5.6,20,.6,4.9,2.3,12.8,3.6,17.5,1.4,4.6,4.1,11.8,6.1,16,2.1,4.1,4.9,9.3,6.3,11.5,1.4,2.2,3.9,5.5,5.5,7.4,1.7,1.9,4,4.4,5.1,5.5s3.4,3.2,5,4.5c1.6,1.4,4.3,3.5,5.9,4.6,1.7,1.1,6.9,4,11.5,6.3,4.7,2.4,11,5.1,14,6.1,3.1,1,9.6,2.4,14.5,3.1,5.7.7,14,1,22.5.7,7.7-.4,15.9-1.3,19-2.2s6.7-1.8,8-2.1c1.4-.3,3.9-1.2,5.5-1.9,1.7-.8,5.1-2.2,7.5-3.3,2.5-1,7.4-3.9,11-6.3,3.5-2.5,9.6-7.6,13.4-11.4,3.8-3.9,8.8-10,11.1-13.5ZM2919.9,574.64c0,3.9-.5,10.5-1.1,14.5-.6,3.9-1.7,8.8-2.5,10.7s-2.7,6-4.2,9c-1.4,3-4.1,7.2-5.8,9.5-1.7,2.2-5.5,5.9-8.5,8.2-2.9,2.3-8.7,5.5-12.9,7-6.6,2.4-8.8,2.8-19.5,2.8-9.2,0-13.4-.5-18-1.9-3.3-1.1-8.6-3.8-11.9-6-3.2-2.3-6.8-5.4-7.9-7.1-1.2-1.7-2.8-3.7-3.6-4.5s-2.9-4.7-4.7-8.5c-1.8-3.8-4-10.2-5-14-1.2-4.9-1.7-11-1.7-20s.5-15,1.6-19c.9-3.3,2.9-8.9,4.6-12.5,1.6-3.6,5.1-8.7,7.8-11.5s6-5.9,7.3-7c1.4-1.1,5-3.1,8-4.4,3.1-1.4,7.8-3,10.5-3.7h0c2.8-.7,8.3-1.3,12.3-1.3,4-.1,10.3.6,14,1.5,3.7.8,9,2.5,11.7,3.7,3.3,1.4,7.6,4.6,12.3,9.4,4,4,7.7,8.3,8.3,9.6.5,1.2,1.8,3.5,2.7,5.2,1,1.7,2.4,4.8,3,7,.7,2.2,1.7,6.7,2.2,10,.6,3.3,1.1,9.3,1,13.3Z"/>
      <path class="cls-1" d="M2283,368.94v-45l-104.5-.5c-.7-40.8-.7-53.4-.4-54.3.6-1.6,4.4-1.8,46-2.2l45.4-.5.6-45c-85.3.9-91.3.8-92.1-.5-.6-1-.8-10.8-.5-26.5.3-13.8.6-25.5.6-26-.1-.7,17.9-1.3,50.4-1.8,27.8-.4,51-1,51.5-1.2.7-.4,1-9,1-23v-22.5c-84.8.3-119.6.5-132,.7l-22.5.3c-1.1,28.2-1.5,84.4-1.5,143v106.5c80.3-1.3,115.8-1.6,130.8-1.6l27.2.1Z"/>
      <path class="cls-1" d="M1337.4,667.64c-.6-1.2-1.8-3.9-2.7-6-.9-2.1-1.7-4.4-1.7-5.2,0-.9-1.5-5.7-3.5-10.8-1.9-5.1-3.9-10-4.5-11-.5-1-1-2.2-1-2.7,0-.6-.8-3-1.8-5.3-1.1-2.3-4.3-10.3-7.2-17.7-2.9-7.5-6.2-15.8-7.5-18.5-1.2-2.8-3.4-8.4-5-12.5-1.5-4.2-3.5-9.3-4.5-11.5s-2.9-7-4.3-10.5c-1.3-3.6-3.2-7.9-4.1-9.5-.8-1.7-1.5-3.5-1.5-4,0-.6-1.5-4.6-3.2-9-1.7-4.5-3.5-9-4-10-.4-1.1-3.3-8.8-6.3-17-3.1-8.3-6.8-17.5-8.3-20.5l-2.8-5.5h-37.1l-3.6,9c-2.1,4.9-3.7,9.5-3.7,10.2-.1.7-1.4,4.2-3.1,7.8-1.6,3.5-3,6.9-3,7.5,0,.5-2,6-4.5,12.2s-4.7,11.9-4.9,12.8c-.2.8-1.1,3.3-2.1,5.5s-1.9,4.6-2.1,5.5c-.2.8-1.8,5.3-3.7,10-1.9,4.6-5.5,13.6-8,20-2.6,6.3-4.6,11.8-4.6,12.2-.1.4-.8,2.4-1.7,4.5-.9,2.1-1.8,4.4-2,5.3-.1.8-1,3.3-1.9,5.5-.9,2.1-2.1,5.1-2.7,6.5-.6,1.3-2.1,5.1-3.3,8.5-1.3,3.3-3.7,9.8-5.4,14.5-1.6,4.6-3.5,9.4-4,10.5-.5,1-1.9,4.9-3.1,8.5-1.2,3.5-2.4,6.9-2.8,7.5-.3.5-.7,1.4-.8,2-.1.5-.4,1.7-.8,2.7-.5,1.6.9,1.8,19.9,1.8,20.2,0,20.6-.1,22-2.3.8-1.2,2.6-5.6,4.1-9.7,1.4-4.2,2.7-8,2.8-8.5.2-.6.7-2,1.1-3,.5-1.1,1.7-4.3,2.8-7,1-2.8,2.5-6.1,3.3-7.3l1.4-2.2c61.1,0,64.2.1,65.9,1.7,1,1,3.7,6.9,6,13.3,2.3,6.3,4.7,12.2,5.2,13.2s.9,2.3,1,3c0,.7,1,3.2,2.2,5.7l2.2,4.4c33.4-1.1,43.3-1.7,43.5-1.9.3-.3,0-1.5-.6-2.7ZM1244.9,595.84c-18,0-21-.2-21-1.5,0-.8.9-3.5,2-6,1.1-2.5,1.7-4.5,1.3-4.5-.4.1-.2-.5.4-1.2.7-.7,1.4-2.2,1.6-3.3.3-1.1.8-2.9,1.2-4,.5-1.1,1.7-4.2,2.8-7,1.1-2.7,2-5.4,2.1-6,.2-.5.8-2,1.4-3.2.7-1.3,1-2.5.7-2.8-.2-.3.2-2.1,1-4,.9-1.9,1.5-3.8,1.4-4.2-.1-.5.8-3,2-5.6h0c1.3-2.7,2.7-4.6,3.3-4.2.6.3,1,1.4.9,2.3,0,.9.3,2.2.8,2.7.4.6,1.8,3.5,2.9,6.5,1.1,3,3.3,8.7,4.8,12.5,1.4,3.8,4.6,12.7,7.1,19.8,2.4,7,4.3,12.9,4.3,13.2s-9.4.5-21,.5Z"/>
      <path class="cls-1" d="M3024.8,788.44c-6.3.4-11.8,1.2-12.4,1.8-.6.6-2.8,5.6-4.9,11.1-2.1,5.5-4,10.5-4.1,11-.1.6-1.6,4.8-3.3,9.5-1.8,4.7-3.5,9-3.8,9.5-.3.6-1,2.4-1.4,4-.4,1.7-1.7,5.5-2.9,8.5s-3.2,8.2-4.4,11.5-2.7,6.9-3.3,8c-1,1.8-1.4,1.5-3.6-3.5-1.3-3-4-10-6-15.5-1.9-5.5-4.9-13.8-6.7-18.5s-4-10.7-5-13.5c-1-2.7-3.2-8.8-4.8-13.5-2.1-6.3-3.5-8.8-5.3-9.7-1.3-.7-6.3-1.3-11.6-1.3-6.8,0-9.3.4-9.2,1.3h0c0,.7,1.8,6.6,4.1,13.2,2.3,6.6,6.3,17.9,9,25,2.7,7.2,6.2,16.4,7.8,20.5,1.5,4.1,4.7,12.5,7,18.5,2.3,6.1,5.5,14.6,7.2,19s3.8,9.6,4.7,11.5,2.1,4.1,2.9,4.8c.7.7,3.2,1.5,5.5,1.7,2.3.3,5.1.5,6.2.5s2.9-.8,3.9-1.7c1-1,3-3.8,4.4-6.3s3.8-7.9,5.3-12,4.1-11.1,5.7-15.5c1.6-4.4,3.5-9.3,4.2-11,.7-1.6,1.7-3.9,2.2-5s1.1-2.7,1.2-3.5c.2-.8.7-2.4,1.1-3.5.5-1.1,2.4-6,4.3-11,1.9-4.9,4.1-10.6,4.9-12.5.8-1.9,1.5-4.2,1.7-5,.1-.8.5-1.9.9-2.5.3-.5,2.2-5.9,4.2-12,2-6,4-11.4,4.6-12,.5-.5,1-1.3,1-1.7-.1-.4-5.1-.5-11.3-.2Z"/>
      <path class="cls-1" d="M3156.9,575.14l-.3-93.7c-7.7-.8-16.9-.8-25.5-.5h0s-15.5.5-15.5.5c0,91-.3,117.5-.7,117.5s-1.4-1.4-2.3-3c-.8-1.7-1.9-3-2.5-3-.5,0-1.1-.8-1.3-1.8s-13.7-21.8-30.1-46.2c-16.4-24.5-30.1-44.8-30.5-45-.4-.3-3.4-4.5-6.6-9.4-3.3-4.9-6.3-9-6.7-9.3-.4-.2-9.3,0-19.7.4l-19,.8-.1,188.5h41l.3-71.64-.2-18.66c-.1-15.3,0-27.8.3-27.8.02,0,.06.02.1.03v-.43c.6.63,1.16,1.27,1.69,1.91.23.25.47.51.71.8.88.96,1.62,1.97,1.89,2.6,1.43,2.07,2.6,4.11,3.51,6,1.8,3.5,3.8,6.9,4.5,7.5s1.3,1.5,1.3,1.9c-.1.4.8,1.7,1.9,2.8,1.1,1.1,2,2.6,2,3.5,0,.8.5,1.5,1,1.5.6,0,3.1,3.3,5.5,7.5,2.5,4.1,5,7.5,5.5,7.5.6,0,1.3,1.1,1.5,2.5.3,1.3,1,2.5,1.5,2.5.6,0,1,.6,1,1.5,0,.8.5,1.5,1,1.5.6,0,1,.6,1,1.5,0,.8.4,1.4.8,1.4s4.6,5.7,9.2,12.8c4.7,7,9.3,13.5,10.3,14.5.9,1,1.7,2.3,1.7,3s.9,2,2,3,2,2.4,2,3.3c0,.8.5,1.5,1,1.5.6,0,2.9,3,5.2,6.7s4.7,7.1,5.5,7.5c.7.4,1.3,1.3,1.4,2,0,.7.8,2.2,1.7,3.3,1,1.1,3.1,2.9,4.7,4,2.7,1.6,5,1.9,19,1.9,8.8,0,16.8-.3,17.8-.7,1.6-.7,1.7-6,1.5-94.5Z"/>
      <path class="cls-1" d="M2702.6,481.84l-7,.6c0,26.7.1,69.1.3,111.5l.2,77c38.9,0,39-.1,39.5-2.3.3-1.2.5-44,.5-95v-92.7c-20.5.2-29.6.6-33.5.9h0Z"/>
      <path class="cls-1" d="M2938.7,318.24c-2.3,2.4-5.8,5.1-7.7,6.1-1.9.9-4.4,1.9-5.5,2.1-1.1.2-3.8.8-6,1.3-2.2.6-8.1,1.1-13,1.1-7.1,0-10.5-.6-16-2.5-3.8-1.4-8.8-3.8-11-5.3s-4.6-3.4-5.3-4.2c-.7-.8-2.5-3.3-4-5.5s-3.5-6-4.4-8.5c-1-2.5-1.8-5.3-1.8-6.2,0-1-.7-2-1.5-2.3s-13.4-.5-28-.5h-26.5c0,3.9.7,8,1.4,11.8.8,3.7,2.4,9.6,3.6,13.2,1.1,3.6,3,8.5,4.3,11,1.2,2.5,2.8,4.8,3.5,5.3.6.4,1.2,1.4,1.2,2.2s3.9,5.5,8.8,10.3c6.1,6.1,10.8,9.8,15.7,12.4,3.8,2,9.7,4.7,13,6.1,3.3,1.3,9.8,3.3,14.5,4.5,4.7,1.1,13.9,2.6,20.5,3.3,6.7.6,16.2.9,21.5.5,5.2-.3,12.2-1.1,15.5-1.6,3.3-.6,9.6-2.3,14-3.7,4.4-1.4,10.7-3.9,14-5.7,3.3-1.7,8-4.4,10.5-6.1,2.4-1.6,7.6-6.2,11.5-10,5.3-5.4,8.2-9.3,11.8-16.5,2.6-5.2,4.7-9.9,4.6-10.5-.1-.5,0-1.7.3-2.5.4-.8,1.1-4.2,1.7-7.5.6-3.3,1.1-9.5,1.1-13.7s-.7-11.3-1.6-15.5c-.9-4.3-2.7-10-3.9-12.8-1.3-2.7-4-7.5-6.1-10.5s-5.6-7.3-7.9-9.5c-2.2-2.2-6.7-5.8-10-7.9-3.3-2.2-8.9-5.4-12.5-7.2-3.6-1.7-9.9-4.4-14-5.8-4.1-1.5-9.1-3.3-11-4.1-1.9-.7-8.9-2.7-15.5-4.5-6.6-1.7-15.2-4-19-5.1-3.8-1.1-9.7-3.3-13-4.8-3.3-1.6-7.3-4.3-8.9-6.2-1.6-1.9-3.7-5.2-4.7-7.4s-1.9-6.3-1.9-9.2.7-7.2,1.6-9.5c.9-2.4,3.8-6.5,6.5-9.3,3.1-3.2,6.5-5.6,9.6-6.7,2.6-1,7.3-2.1,10.3-2.4,3.1-.4,8.1-.1,11.5.6,3.3.7,8.3,2.1,11,3.3,2.8,1.1,6.3,3.2,7.9,4.6,1.5,1.4,3.2,3.5,3.7,4.6s1.3,2.7,1.8,3.5,1.9,4,3,7c1.2,3,2.1,6.3,2.1,7.3,0,1.6,1.9,1.7,25.3,1.7,13.8.1,26-.2,26.9-.5,1.2-.3,1.8-1.5,1.8-3.7,0-1.8-1.1-7.3-2.5-12.3-1.4-4.9-4.7-13.3-7.2-18.5-3.9-7.7-6.2-11-12.8-17.5-6.4-6.4-9.9-8.9-17.5-12.7-5.2-2.6-11.6-5.4-14.2-6.3-2.7-.8-8.7-2.2-13.5-3-4.9-.9-12.6-1.7-17.3-1.9-4.7-.3-9.8-.3-11.5,0h0c-1.7.2-6.8.9-11.5,1.5-4.7.6-13,2.6-18.5,4.4-5.5,1.9-11.1,4-12.5,4.7s-5.2,3.1-8.5,5.3c-3.3,2.2-8.7,6.7-12,10-3.4,3.3-7.2,7.8-8.7,10-1.4,2.2-3.4,5.6-4.5,7.5s-2.3,4.6-2.6,6-.6,2.8-.7,3.3c0,.4-.5,2.4-1,4.5-.6,2-1,8.9-1,15.2.1,8,.7,13.9,2.1,19.5,1.1,4.4,3.3,10.3,4.8,13,1.5,2.8,3.6,6.4,4.7,8,1,1.7,4.6,5.7,7.9,9,3.3,3.3,7.8,7.1,10,8.5s5,3.1,6.2,3.8c1.3.6,3.1,1.6,4,2.1,1,.4,3.1,1.5,4.8,2.3,1.7.9,6.8,2.9,11.5,4.6s14.1,4.7,21,6.7,14.7,4.3,17.5,5c2.7.8,8.5,2.7,12.7,4.2,4.3,1.5,10.1,4.6,13,6.9,2.9,2.2,6.2,5.8,7.3,8,1.4,2.7,2,6.2,2.1,11.4.1,4.6-.3,8.8-1.2,10.8-.8,1.7-3.3,5.2-5.7,7.6Z"/>
      <path class="cls-1" d="M2592.2,165.34c52.2,1.3,67.6,1.9,68.1,2.1.4.2.7,42.8.7,94.7s.3,97,.7,100.5l.8,6.2h51.5v-203h68v-48h-189.7l-.6,18.8c-.4,10.3-.4,21-.1,23.7l.6,5Z"/>
      <path class="cls-1" d="M2871.3,851.94l-.7,8.5c-4.6-6.8-6.7-9.5-7.5-10.4-.8-1-3.3-4.4-5.5-7.7-2.2-3.2-4.3-6.2-4.7-6.4-.3-.3-4.4-6.2-9-13-4.5-6.9-11-16.1-14.3-20.5s-7.5-9.5-9.4-11.5c-3.1-3.3-3.8-3.5-10.5-3.8-3.9-.2-7.8.1-8.6.7h0c-1.3.9-1.5,8.6-1.7,57.5l-.3,56.6,22.3-.5c.2-60.9.5-68.5,1.5-68.5.6,0,3.8,3.9,7,8.7,3.1,4.8,6.2,9.2,6.8,9.8.6.5,1.9,2.3,2.9,4,1,1.6,2.4,3.6,3.2,4.5.7.8,2.9,3.6,4.8,6.2,1.9,2.6,3.5,5.2,3.5,5.8,0,.5.5,1,1,1,.6,0,2,1.7,3.3,3.7,1.2,2.1,3.2,4.9,4.5,6.3,1.2,1.3,2.2,2.7,2.2,3,0,.2,1.4,2,3.1,4,1.7,1.9,3.7,4.6,4.5,6,.8,1.3,3.4,3.5,5.7,4.8,3.4,1.9,5.4,2.3,10.7,2l6.5-.3.5-114.5h-21c-.2,43-.5,59.3-.8,64Z"/>
      <path class="cls-1" d="M2543.9,819.44c-1.3-2.8-3.1-6.1-3.9-7.5-.7-1.3-2.3-3.5-3.4-4.9-1.1-1.4-3.8-4.1-5.9-6.1-2.1-1.9-4.7-4.2-5.6-5-.9-.9-3.6-2.5-6.1-3.7-2.4-1.2-7.1-2.9-10.4-3.8-3.3-.9-10.3-1.8-15.5-2s-11.5,0-14,.4h0c-2.5.5-5.6,1.1-7,1.4-1.4.2-4.7,1.5-7.5,2.8-2.7,1.3-6.8,3.5-9,5s-5.6,4.4-7.5,6.6c-1.9,2.1-4.4,5.2-5.6,6.8-1.1,1.6-3.3,6.1-4.8,10-1.6,3.8-3.3,9.4-3.8,12.5-.6,3-.8,10.4-.5,16.5.4,7.6,1.2,12.8,2.7,17,1.2,3.3,2.3,7,2.6,8.2.2,1.3.9,2.3,1.4,2.3.6,0,1,.6,1,1.5,0,.8.5,1.5,1,1.5.6,0,2,1.7,3.2,3.7,1.3,2.1,3.6,4.9,5.2,6.3,1.7,1.3,4.6,3.6,6.5,5,2,1.4,6.3,3.7,9.6,5.2s8.7,3.2,12,3.9c3.5.6,9.5.9,14.5.5,4.7-.3,10.3-1.1,12.5-1.7,2.2-.7,7.4-2.8,11.5-4.7,5.8-2.7,9.3-5.2,15.1-11.1,4.8-4.9,8.5-9.7,10.2-13.4,1.5-3.1,2.7-6.1,2.8-6.5,0-.4.5-1.2.9-1.7.5-.6,1.2-2.4,1.6-4,.4-1.7.9-7.3,1.1-12.5.3-6.2-.1-12-1-16.5-.8-3.9-2.6-9.3-3.9-12ZM2525.8,853.84c-.4,1.9-1.2,4.7-1.8,6.3-.6,1.5-2.1,4.2-3.3,6-1.2,1.7-4,5.1-6.2,7.5-2.2,2.3-4.6,4.2-5.3,4.2s-1.3.4-1.3,1-2.3,1.7-5.2,2.6c-3.9,1.2-7.8,1.6-14.8,1.2-7.2-.3-10.4-.9-13.5-2.6-2.2-1.2-6.1-4.3-8.6-6.9-3-3.1-5.9-7.5-8-12.3-2.8-6.4-3.2-8.7-3.3-16,0-4.7.2-9.8.6-11.5.3-1.6,1.8-5,3.2-7.5,1.4-2.5,4.2-6.1,6.3-8.1s6-4.8,8.6-6.3c2.6-1.4,6.9-3,9.5-3.5h0c2.6-.5,6.1-.9,7.7-1,1.7-.1,5.5.4,8.5.9,3.1.6,6.9,1.8,8.5,2.6,1.7.8,5.1,3.3,7.6,5.7,2.8,2.6,5.8,6.9,7.9,11.2,2.9,6,3.4,8.1,3.4,15,.1,4.4-.2,9.6-.5,11.5Z"/>
      <path class="cls-1" d="M1453.6,282.14c.4-2.2.6-2.2,16.9-2.2h16.5c3.5,5.8,4.7,7.9,4.9,8.5.2.5,1.7,3.7,3.3,7,1.6,3.3,3.3,6.6,3.9,7.5.5.8,1.4,2.6,1.9,4,.6,1.3,1.5,3.1,2,4,.5.8,4.6,8.9,9.1,18,4.5,9,10.2,20,12.5,24.5,2.4,4.4,5,9.3,5.9,11,.8,1.6,2.5,3.6,3.8,4.3,1.8,1.1,7.4,1.2,29.2.8,14.9-.4,27.2-.9,27.3-1.2.1-.2-.5-2.1-1.4-4.2-1-2.1-2.6-5.1-3.8-6.7-1.1-1.7-4-6.9-6.4-11.5-2.4-4.7-5.1-9.7-6-11-.9-1.4-2.5-4.3-3.6-6.5s-2.7-5.2-3.7-6.5c-.9-1.4-3.8-6.6-6.4-11.5-2.6-5-5.5-10.2-6.4-11.5-.9-1.4-3-5.2-4.6-8.5s-4.5-8.7-6.5-12-3.9-6.8-4.3-7.8c-.5-1.3.4-2.4,3.6-4.4,2.3-1.5,6.7-4.3,9.7-6.2,3.1-2,8.5-6.5,12.1-10.1s8-9,9.7-12c1.7-3.1,4.3-9.1,5.8-13.5,2.6-7.5,2.8-9.2,2.9-25,0-13.5-.3-18.4-1.8-23.5-1-3.6-3.2-9.5-4.9-13-1.7-3.6-4.4-8.3-6.1-10.5s-5.8-6.8-9.1-10.1c-4.5-4.5-8.7-7.3-16.6-11.2-6.2-3.1-13.9-6-19-7.2-4.6-1.1-13.6-2.4-20-3-6.3-.6-32.5-1-58.2-1h-46.8v249h54c.1-65.5.3-85.6.6-86.8ZM1453.6,178.34l.7-12,51.2,1.1,5,3.4c2.7,1.9,6,4.5,7.3,5.9,1.2,1.5,3.2,4.6,4.4,7.1,1.9,3.8,2.2,6.2,2.3,15.5,0,9.5-.3,11.6-2.3,15.5-1.2,2.5-3.7,6.1-5.6,8-1.9,1.9-4,4-4.8,4.6-.7.6-2.6,1.8-4.3,2.6-1.7.9-5.9,2.1-9.5,2.8-3.6.6-14.7,1.2-24.8,1.3-15.3.2-18.4,0-19.2-1.3-.5-.8-1-10.7-1-22s.3-25.9.6-32.5Z"/>
      <path class="cls-1" d="M2455.6,664.94c4.4-2.1,9.1-4.7,10.4-5.7,1.3-1,3.7-3,5.4-4.3,1.7-1.4,4.7-4.8,6.7-7.5,2-2.8,4.9-7.5,6.3-10.5,1.5-3.1,3.4-8.9,4.2-13,1.2-6.1,1.4-20.3,1.5-75.5l.1-68c-30.7,1.2-39.7,1.7-39.8,1.8-.1.1-.2,29.5-.2,65.4-.1,39.4-.5,67.1-1.1,70-.7,3.6-2.1,5.9-5.7,9.5-2.5,2.6-5.2,4.8-6,4.8-.7,0-1.3.3-1.2.7,0,.4-2.4,1.5-5.3,2.5-3.4,1.2-8.2,1.8-13.8,1.8-4.6-.1-10.7-.7-13.5-1.4-2.7-.7-6.5-2.2-8.5-3.2-1.9-1-4.4-2.7-5.5-3.9-1.1-1.1-3-3.4-4.1-5-1.1-1.7-2.5-4.2-2.9-5.5-.5-1.4-1.1-32.7-1.4-69.5l-.6-67c-36.9-.5-40.6-.3-40.9.8h0c-.3.8-.4,32-.2,69.3.1,51.2.5,68.7,1.5,71.4.6,1.9,1.7,5,2.3,7,.6,1.9,1.8,5,2.7,7,.9,1.9,2.4,4.2,3.4,5.2.9,1,1.7,2.2,1.7,2.8,0,.5,2.2,3,4.8,5.6,2.6,2.5,6,5.3,7.5,6.2s2.7,2,2.7,2.4,3.3,2.3,7.3,4.3c4,1.9,10.2,4.4,13.7,5.4,3.6,1.1,10.4,2.5,15,3.1,5.2.8,13.4,1,21,.7,6.9-.4,15.2-1.3,18.5-2.2s9.6-3.4,14-5.5Z"/>
      <path class="cls-1" d="M2363.8,846.04l.3,57.3c15.3-.8,20-1.2,20.2-1.5.3-.3.7-25.7.9-56.5l.3-56-22-.5.3,57.2Z"/>
      <path class="cls-1" d="M2348.8,327.64c.9,1.3,5.1,5.8,9.2,10,4.1,4.3,8.8,8.8,10.5,10.2,1.7,1.3,5.7,4.3,9,6.5,3.3,2.2,9.2,5.5,13,7.4,3.8,1.8,7.9,3.7,9,4.1,1.1.4,3.3,1.3,5,1.9,1.7.5,5.7,1.7,9,2.5s10.5,2,16,2.7c6.2.7,15.5,1,24.5.6,8-.3,18.1-1.3,22.5-2.2,4.4-.9,10.9-2.8,14.5-4.1,3.6-1.4,7.4-2.7,8.5-2.9,1.1-.2,6.6-2.7,12.3-5.5,5.6-2.7,10.2-5.4,10.2-6,0-.5.6-1,1.3-1,.6,0,2.8-1.3,4.7-2.8s7.1-6.3,11.5-10.7c4.4-4.4,8.6-8.9,9.2-10,.7-1.1,2.7-4.2,4.5-7,1.8-2.7,4.3-7.9,5.6-11.5,1.3-3.6,2.4-6.9,2.6-7.5.1-.5,1-3.4,1.9-6.2.9-2.9,1.5-5.7,1.2-6.3s-10.4-1-27.2-1l-26.8-.1c-3.1,5.3-5.2,8.6-6.6,10.7-1.4,2.1-4.7,5.7-7.1,7.9-2.5,2.2-5.9,5.1-7.4,6.4-1.6,1.3-4,2.8-5.4,3.4-1.4.6-2.7,1.1-3,1.2-.3,0-1.8.8-3.5,1.7-1.7.8-6.2,2.4-10,3.3-5,1.3-11,1.9-21,1.9-8.9.1-16-.4-19.5-1.3-3-.8-8.3-2.9-11.7-4.8-3.5-1.8-7-3.9-7.9-4.5-.9-.7-3.5-3.1-5.8-5.4-2.3-2.2-5-5.2-6.2-6.5-1.2-1.3-3.1-4.3-4.3-6.6-1.1-2.4-2.5-4.5-3.1-4.8s-1-1.2-1-2-.9-3.4-1.9-5.7c-1.1-2.4-2.9-8.3-4.1-13.3-1.2-4.9-2.5-14-2.9-20.2-.3-6.1-.3-12.9.1-15,.3-2.1.9-6,1.2-8.8.3-2.7,1-6.6,1.5-8.5.6-1.9.8-3.7.6-4-.3-.3-.1-.9.5-1.5.5-.5,1.1-1.9,1.2-3,.2-1.1,1.3-3.8,2.3-6,1.1-2.2,3.9-6.9,6.4-10.5s5.9-7.8,7.6-9.5c1.7-1.6,5.5-4.6,8.5-6.6,3-1.9,7.3-4.3,9.5-5.3,2.2-1.1,6-2.5,8.5-3.2,2.5-.7,7.9-1.8,12-2.4,4.1-.7,11.1-1.1,15.5-1,4.4,0,10.9.5,14.5,1.1,3.6.6,9.4,2.2,13,3.6,3.6,1.5,8.3,4,10.5,5.7s5.9,5.1,8.3,7.6c2.3,2.5,5.5,7,7,10s3.5,6.3,4.5,7.2c1.5,1.6,4.1,1.8,26.4,1.8,13.7,0,25.5-.4,26.3-1,1.3-.8,1-2.4-2.1-11.7-2-5.9-4.7-13-6-15.8-1.3-2.7-4.3-7.9-6.8-11.5-2.4-3.6-6.2-8.5-8.5-10.9-2.3-2.5-5-5.4-6.2-6.5-1.1-1.2-3.7-3.6-5.7-5.3-2-1.8-4.1-3.3-4.7-3.3s-1.8-.8-2.7-1.8c-1-.9-3.4-2.5-5.3-3.4-1.9-.9-6.4-2.9-10-4.5-3.6-1.6-9.7-3.9-13.5-5.1s-11.1-2.8-16-3.7c-4.9-.8-14.8-1.8-22-2.1-7.2-.4-13.2-.4-13.5-.1h0c-.3.3-3.9.7-8,1-4.1.4-11.1,1.4-15.5,2.5-4.4,1-9,2.4-10.3,3-1.2.7-2.2.9-2.2.5,0-.5-.4-.3-.8.2-.4.6-3.2,2-6.2,3.3-3,1.3-5.9,2.4-6.5,2.5-.5.1-1.4.6-2,1-.5.4-4.8,3.1-9.3,6-4.6,2.9-9.2,5.7-10.3,6.2-1,.6-5.8,5.1-10.7,10-4.8,5-10.1,10.8-11.7,13-1.7,2.2-4.5,6.5-6.3,9.5-1.9,3-4.3,7.5-5.4,10-1.1,2.5-2.6,5.8-3.3,7.5-.7,1.7-2,5.3-2.9,8-.9,2.8-1.8,5.9-2,7-.2,1.1-.9,5.2-1.5,9-.6,3.8-1.5,9.9-1.9,13.5-.4,3.6-.4,13.3-.1,21.5.3,8.3,1.3,18.8,2.2,23.5.9,4.7,3,12.8,4.7,18,1.8,5.2,5.2,13.8,7.8,19,2.5,5.2,5.4,10.6,6.4,12,1,1.4,2.6,3.5,3.6,4.8Z"/>
      <path class="cls-1" d="M2674.1,788.94h-10l-.5,71.4c-7.4-10-10.2-13.8-11-14.9-.8-1.1-3.1-4.2-5-6.8s-3.5-5-3.5-5.2c0-.3-.7-1.3-1.6-2.3-1-.9-4.2-5.6-7.2-10.2-3.1-4.7-6-8.6-6.4-8.8-.4-.1-1.4-1.5-2.2-3-.7-1.5-3-4.8-5-7.2-2-2.5-5.1-6.3-6.9-8.4-1.8-2.1-3.9-4.2-4.7-4.6-.8-.4-4.4-1.1-8-1.5-4.7-.4-7-.3-8.2.7h0c-1.5,1.1-1.7,6.1-2.3,51.8-.4,27.7-.4,53.1-.1,56.2l.6,5.8,21.5-.5c.4-53.1.7-69,1-69.5.3-.6,3.8,3.8,7.7,9.7,4,5.9,8.1,11.6,9,12.5,1,1,2.5,3.1,3.3,4.8.8,1.6,2,3,2.5,3,.6,0,1.2,1.1,1.5,2.5.3,1.3,1,2.5,1.5,2.5.6,0,1.6,1.2,2.4,2.7.8,1.5,2.8,4.3,4.5,6.3,1.8,1.9,3.4,4.3,3.6,5.2.3,1,1,1.8,1.5,1.8.6,0,2.1,2,3.5,4.5,1.4,2.4,2.8,4.5,3.3,4.4.4,0,1.6,1.6,2.7,3.5,1.1,1.9,3.7,4.4,5.8,5.5,2.9,1.6,5.2,2,10.8,1.8l7-.2c-.2-86.8-.4-112.4-.7-112.8-.2-.4-4.9-.7-10.4-.7Z"/>
      <path class="cls-1" d="M2610.6,669.44c.8-117.1,1.2-151.2,1.3-151.3.1-.1,11.6-.2,25.5-.2h25.2c1.2-5.9,1.5-14.2,1.5-22.3v-14.7c-108.9.1-141.3.4-142.3.6h0c-1.6.4-1.8,2.2-2.2,17.6-.4,13.3-.2,17.4.8,18,.7.4,12,.7,25.2.7h24c1.2,5.9,1.5,40.1,1.5,79.8v72.3l39.5-.5Z"/>
      <path class="cls-4" d="M1401.98,558.59c.43.12,1.04.11,1.92.05l2.8-.3c-2.15-4.29-3.41-6-4.1-6.4h0c-.2,0-.41,2.27-.62,6.65Z"/>
      <path class="cls-4" d="M3037.6,552.87l-.2,46.43.1,9.04c.5-48.7.6-49.5,2.5-49.5,1.1,0,2-.3,2-.7,0-.1-.05-.24-.11-.4-.78-1.13-1.64-2.26-2.59-3.39-.74-.8-1.39-1.36-1.69-1.47Z"/>
      <path class="cls-4" d="M1760.3,849.84c.2,3,.4-1.8.5-10.8.1-8.9-.1-16.2-.5-16.2,0,0-.01,0-.02.01-.05,5.64-.09,13.24-.12,23.2.06,1.55.11,2.87.14,3.78Z"/>
      <path class="cls-4" d="M1401,555.34c0,2.16.09,2.99.98,3.25.21-4.38.42-6.65.62-6.65h0c-.11-.07-.21-.1-.3-.1-.8,0-1.3,1.4-1.3,3.5Z"/>
      <path class="cls-4" d="M3037.5,552.84c-.3,0-.4,12.5-.3,27.8l.2,18.66.2-46.43s-.07-.03-.1-.03Z"/>
      <path class="cls-4" d="M1759.8,833.54c.07,4.17.24,8.97.36,12.52.03-9.97.07-17.57.12-23.2-.49.12-.68,4.86-.48,10.69Z"/>
      <path class="cls-4" d="M3039.29,554.34c.95,1.13,1.82,2.27,2.59,3.39-.27-.63-1.01-1.64-1.89-2.6-.24-.28-.48-.55-.71-.8Z"/>
      <path class="cls-4" d="M1254.5,166.54c2.8-.2-1.6-.4-9.7-.5-8.1-.1-14.9.1-15.2.6-.14.28,2,.46,5.2.48,3.06-.16,7.17-.26,11.68-.27,3.38-.12,6.44-.24,8.03-.3Z"/>
      <path class="cls-1" d="M1239.3,167.04c2.3-.04,4.82-.12,7.17-.2-4.51.02-8.62.12-11.68.27,1.35,0,2.87-.02,4.5-.08Z"/>
    </g>
    <g>
      <path class="cls-3" d="M449.5,849.84c5.08-.09,11.61-.53,15.18-.91-5.72.34-11.2.67-15.18.91Z"/>
      <path class="cls-3" d="M425.33,853.37s.04-.03.06-.04c-.02.01-.04.03-.06.04Z"/>
      <path class="cls-3" d="M336,875.34c0,.64-.98,1.8-2.24,2.8.54-.28.91-.49,1.04-.6.7-.7,1.3-1.8,1.2-2.5,0-.26-.15-.46-.49-.6.35.22.49.51.49.9Z"/>
      <path class="cls-3" d="M430.1,851.54c-1.64.34-3.3.96-4.4,1.61,1.19-.66,3.2-1.27,5.85-1.8-.6.07-1.1.14-1.45.19Z"/>
      <path class="cls-3" d="M424.31,856.54c.52.4,4.81,1.1,9.49,1.5.91.08,2.47.17,4.57.27-1.59-.09-2.98-.18-4.07-.27-4.98-.4-9.47-1.1-9.99-1.5Z"/>
      <path class="cls-2" d="M1028.8,503.34l-.3-50c-3.9-7-6.1-10.2-7.5-11.5-1.4-1.4-4.8-3.5-7.5-4.7-2.8-1.2-9.4-3.1-14.8-4.3-5.3-1.1-15.9-2.9-23.4-4-7.6-1.1-15.4-2-17.3-2s-4.3-.5-5.3-1.2-2.7-3.8-3.9-6.8c-1.1-3-3.3-9.5-4.8-14.5s-3.6-11-4.6-13.5c-.9-2.5-2.3-5.2-3-6s-1.5-2.6-1.8-4-1.3-3.2-2.1-4c-.9-.8-1.6-2.1-1.5-2.8,0-.6-2.1-5.4-4.7-10.5-2.5-5-5.2-9.9-5.8-10.7-.7-.8-1.8-3.8-2.5-6.5l-1.3-5c7.1-6.2,12.4-10.5,16.3-13.5,4-3,13.1-11.6,20.4-19,7.2-7.4,14.9-16.2,17.1-19.5s4.6-7.1,5.4-8.5c.7-1.4,1.7-4.1,2.2-6,.7-3,.3-4.6-2.9-10.9-2-4-4.3-7.9-5-8.5-.7-.6-1.3-1.6-1.3-2.1.1-.5-2.3-4.5-5.2-8.8-2.8-4.3-5.5-7.8-6-7.7-.4,0-.7-.7-.7-1.5s-.8-2.3-1.8-3.3c-.9-1-2.3-2.7-3-3.8-.7-1-2.6-4-4.2-6.7-1.7-2.6-3.5-4.7-4-4.7s-1-.5-1-1-1.5-3-3.3-5.4c-1.7-2.5-5.5-7.7-8.2-11.6-2.8-3.8-8.4-10.6-12.5-15-4.1-4.3-8.7-8.4-10.3-9-1.5-.5-4.5-1-6.7-1s-5.9.8-8.3,1.7c-2.3.9-6,2.8-8.2,4.2-2.2,1.3-6.4,4.1-9.4,6-2.9,2-6.7,4.6-8.5,5.9-1.7,1.2-4.8,3.3-6.9,4.7-2,1.4-4,2.5-4.5,2.5-.4,0-3.1,2.3-6,5-2.8,2.8-5.9,5-6.7,5s-3.6-2.1-6.3-4.6c-2.6-2.6-7.1-6.8-10.1-9.3s-8.2-7.2-11.5-10.4c-3.4-3.1-6.7-5.7-7.4-5.7-.6,0-1.2-.5-1.2-1s-1.8-2-4-3.3c-2.2-1.2-4-2.5-4-3,0-.4-1.7-1.7-3.8-2.9-2-1.2-4.4-2.9-5.2-3.7-.8-.8-4.1-3.4-7.3-5.8-3.1-2.3-6.2-4.3-6.7-4.3s-1-.5-1-1-2.1-2-4.7-3.3c-2.5-1.2-4.8-2.9-5.1-3.7-.3-.8,0-3.3.6-5.5s2.2-8.3,3.6-13.5,2.3-9.7,2.1-10c-.3-.3,0-1.3.5-2.3.6-.9,1.2-3.8,1.5-6.5.3-2.6,1-8.8,1.6-13.7.9-7,.9-10.2-.1-14.5-1-4.2-2.3-6.4-5.5-9.5-2.2-2.2-5.7-4.8-7.6-5.8-1.8-.9-5.7-2.9-8.5-4.5-2.8-1.5-5.7-3.2-6.5-3.8-.8-.6-2.5-1.5-3.9-1.9-1.4-.5-6.8-2.8-12-5.3-5.2-2.4-11.8-5.3-14.5-6.4-2.8-1.1-10.2-3.7-16.5-5.8-6.3-2.2-14.4-4.4-18-5.1-5.1-1-7.5-1-11,0-2.7.7-6.4,2.8-9.2,5.4-2.6,2.3-5.6,5.9-6.8,7.9-1.1,2.1-2.7,8-3.6,13-1.1,6.2-1.9,18.5-2.3,36.8-.6,26.5-.5,27.6,1.4,30,1.1,1.3,3.2,3.6,4.6,5,1.4,1.4,4.9,4.6,7.8,7.2,2.8,2.7,5.4,4.8,5.8,4.8.5,0,3.1,2.2,5.9,4.8,2.8,2.6,7.7,6.9,11,9.7,3.2,2.7,7.7,6.8,9.9,9,2.3,2.2,6.3,5.8,9,8,2.7,2.2,7,6,9.5,8.4s6.5,6,8.9,8c2.5,2,6.8,5.8,9.6,8.6,2.8,2.7,7.3,6.8,10,9,2.7,2.2,5.9,4.9,7,6,1.1,1.1,4.7,4.3,8,7,3.3,2.7,8,7,10.5,9.4s6.5,6,9,8,5.9,4.9,7.5,6.6c1.7,1.7,6.2,5.7,10,9,3.8,3.3,9.9,8.9,13.5,12.4s8.5,8,11,10c2.4,2,6.3,5.4,8.5,7.6,2.2,2.2,6.5,6.1,9.5,8.6,3,2.6,10,9,15.5,14.3,5.5,5.4,11.6,11,13.5,12.4,1.9,1.5,4.9,4,6.5,5.7,1.7,1.6,5.2,4.8,8,7,2.7,2.2,7.5,6.5,10.6,9.5s8.3,8,11.5,11.1,7.9,7.9,10.4,10.6c2.5,2.7,5.6,6.7,7,8.9,1.4,2.1,3.1,4.8,3.8,5.9.7,1.1,2.4,4.5,3.9,7.5,1.7,3.7,2.7,7.9,3.1,12.5.4,5.4,0,8.6-1.7,14-1.6,5-3.7,8.8-7.4,13.4-2.9,3.5-6.1,6.9-7.1,7.5-1.1.6-2.9,1.9-4,2.9-1.2,1-5.3,3.3-9.1,5.1-3.8,1.8-9.7,4-13,4.9-3.3.9-7.3,1.9-9,2.2-1.7.4-7.5,1.3-13,2-5.5.8-10.1,1.5-10.3,1.5-.1,0-.2,5.4-.2,12s.6,16.4,1.4,21.7c.8,5.4,1.7,15.6,2,22.8.3,7.2.1,16.8-.4,21.5-.6,4.7-1.1,9.2-1.1,10-.1.8-.5,4.9-1.1,9-.5,4.1-1.1,9.1-1.3,11-.2,1.9-.9,6.7-1.5,10.5s-1.3,7.2-1.5,7.5-.6,2.1-.9,4c-.2,1.9-1.4,7.3-2.6,12-1.1,4.7-2.5,9.3-3,10.2-.6,1-1,2.5-1,3.3s-1.4,5.9-3.1,11.2c-1.7,5.4-5.6,15.9-8.6,23.3-3,7.4-6.3,15.4-7.3,17.7-1.1,2.4-3,6.4-4.2,9-1.2,2.7-4.8,9.2-8,14.5-3.2,5.4-5.8,10-5.8,10.3s-3,4.9-6.6,10.2c-3.6,5.4-7.8,11.2-9.2,12.9-1.5,1.7-6.1,7.6-10.2,13-4.1,5.5-14.7,17.3-23.5,26.3-8.8,8.9-19.7,19.4-24.3,23.2-4.5,3.8-8.4,6.9-8.7,6.9s-2,1.3-3.8,2.9c-1.7,1.6-4.8,4.1-6.7,5.5-1.9,1.4-8,5.6-13.5,9.3s-10.7,7.1-11.5,7.6c-.8.4-2.8,1.6-4.5,2.7-1.7,1.1-3.9,2.4-5,3-1.1.5-5.2,2.8-9,5s-9.3,5.1-12,6.4c-2.8,1.3-9.3,4.4-14.5,6.9s-13.1,5.9-17.5,7.7c-4.4,1.7-9.8,3.8-12,4.5-2.2.8-8,2.6-13,4-5,1.5-15.3,3.8-23,5.1-7.7,1.4-22.5,3-33,3.6-14.2.8-29.8.8-61.5-.1-6.37-.19-12.7-.39-18.65-.58-1.8-.02-3.94-.06-6.35-.12-7.16-.24-15.79-.6-21.63-.93-2.09-.1-3.66-.19-4.57-.27-4.68-.4-8.97-1.1-9.49-1.5,0,0,0,0,0,0-.4-.4-.3-1.6.3-2.5.15-.23.41-.45.73-.67.02-.01.04-.03.06-.04.1-.06.2-.12.31-.18,1.1-.64,2.76-1.26,4.4-1.61.35-.06.85-.12,1.45-.19.35-.07.69-.14,1.05-.21,3.8-.6,11.4-1.2,16.9-1.3h0c3.98-.24,9.46-.57,15.18-.91.29-.03.57-.06.82-.09h0c3.3-.4,10-.8,14.9-.9.68,0,1.34,0,1.98,0,.04,0,.08,0,.12,0,9.9-.6,22-1.7,27-2.5s12.8-2.2,17.5-3.1c4.7-.9,10.3-1.8,12.5-2.1s8.3-1.4,13.5-2.4,15.1-3.2,22-4.9c6.9-1.6,17.5-4.6,23.5-6.5,6-2,11.9-4.1,13-4.8,1.1-.6,2.9-1.2,4-1.4s6-2.1,11-4.3,14.6-6.8,21.5-10.3c6.9-3.6,14.1-7.4,16-8.5s6.9-4.1,11-6.6,8.2-5.2,9-6.1c.8-1,2-1.7,2.5-1.6.5,0,2.1-1,3.5-2.2,1.4-1.3,4.4-3.5,6.8-5.1,2.3-1.5,7.7-5.5,12-9,4.2-3.4,9.5-7.8,11.7-9.7s9.7-9.1,16.6-16,14.7-15.1,17.5-18.4c2.7-3.2,5.6-6.8,6.4-8,.8-1.1,2.1-2.8,2.9-3.6s2.6-3.1,4-5,2.9-3.7,3.2-4c.4-.3,4.5-6.5,9.3-13.8,4.7-7.2,8.6-13.4,8.6-13.7s1.1-2.2,2.4-4.3c1.3-2,4.5-8,7.2-13.2s6.2-12.4,7.7-16,2.9-7.2,3-8c.2-.8.8-2.4,1.4-3.5s3.1-8.5,5.6-16.5,5.1-16.5,5.7-19c.7-2.5,1.3-5.4,1.5-6.5.1-1.1.7-3.9,1.3-6.3.7-2.3,1.1-4.5,1-5-.1-.4.4-2.6,1-5,.7-2.3,1.1-4.5,1-5,0-.4.1-1.4.5-2.2.3-.8,1.2-6.7,2-13s1.6-12.8,1.8-14.5c.2-1.7.3-13.8.2-27-.05-7.14-.25-17.27-.52-27.51-.1-1.48-.19-2.69-.28-3.49h0c-.35-4.07-.36-5.72.02-5.76-.16-5.46-.34-10.7-.52-15.24-.9-20.7-.9-28.3,0-29,.6-.6,6.6-.9,14.8-.7,10.8.3,15.8-.1,23.7-1.7,5.5-1.1,12.9-3,16.5-4.1,3.6-1.2,8.1-3.1,10-4.2,1.9-1.2,5.2-4,7.3-6.2,3-3.3,3.7-4.8,3.7-8.1,0-2.3-1.2-6.4-2.8-9.5-1.7-3.5-6-8.8-11.7-14.5-4.9-5-11.7-11.3-15-14-3.3-2.8-7.3-6.3-9-8-1.6-1.7-5.3-4.8-8-7-2.8-2.1-5.9-4.8-7-6-1.1-1.1-3.8-3.3-6-4.9-2.2-1.6-4.9-3.9-6-5-1.1-1.2-4.7-4.4-7.9-7.1-3.3-2.8-7.8-6.8-10.1-9-2.2-2.2-5.6-5.2-7.5-6.6-1.9-1.5-5.1-4.2-7-6-1.9-1.9-6.2-5.7-9.5-8.4-3.3-2.8-6.9-5.9-8-7-1.1-1.2-4.3-3.8-7-6-2.8-2.1-6.3-5.3-8-6.9-1.7-1.7-6.2-5.8-10-9.1-3.8-3.3-7.9-6.9-9-8s-3.6-3.2-5.5-4.7c-1.9-1.4-5.3-4.3-7.5-6.3-2.2-2.1-5.6-4.9-7.5-6.4-1.9-1.4-4.4-3.5-5.5-4.7-1.1-1.1-3.8-3.3-6-4.9s-5.4-4.3-7-6c-1.7-1.6-5.6-5.3-8.6-8-3.1-2.8-7.5-6.8-10-9-2.4-2.2-5.7-5.1-7.4-6.3-1.7-1.3-4.8-4-7-6s-5.6-4.9-7.5-6.3c-1.9-1.5-5.1-4.2-7-6-1.9-1.9-5.8-5.2-8.5-7.4-2.8-2.2-5.9-4.9-7-6-1.1-1.1-5.1-4.7-9-8-3.8-3.3-8.3-7.3-10-9-1.7-1.7-5.2-4.8-7.9-7-2.7-2.2-6.1-5.1-7.5-6.5-1.4-1.4-4.8-4.3-7.4-6.5-2.7-2.2-5.4-4.5-6-5-.7-.6-4.1-3.5-7.6-6.5-3.6-3-7.6-6.6-9.1-8-1.4-1.4-5.2-4.8-8.4-7.5-3.2-2.8-7.5-6.6-9.5-8.5-2-1.9-5.9-5.3-8.6-7.5-2.7-2.2-6.5-5.6-8.5-7.5-2-1.9-5.3-4.8-7.4-6.5-2.1-1.7-4.3-3.5-5-4-.6-.6-4-3.5-7.6-6.5s-7.9-6.9-9.5-8.5c-1.6-1.7-5.7-5.3-9-8-3.3-2.8-8.2-7.3-11-10-2.7-2.8-7.2-6.8-10-9-2.7-2.2-6.1-5.1-7.5-6.5-1.4-1.4-4.7-4.3-7.4-6.5-2.7-2.2-5.6-4.7-6.5-5.5-1-.8-5.7-4.2-10.7-7.4-5.4-3.7-10.3-6.1-12.4-6.4-2.7-.2-4.7.4-8.5,3h0c-2.8,1.8-6.8,4.6-8.9,6.3-2.2,1.7-6.9,5.7-10.6,9-3.7,3.3-10,9-14.1,12.6-4.1,3.6-9,7.9-10.9,9.5-1.9,1.5-6,5.1-9.1,7.8-3,2.8-8.8,8-12.9,11.6-4,3.6-8.8,7.6-10.5,9s-5.6,4.8-8.6,7.7c-3,2.8-7.2,6.6-9.4,8.3-2.2,1.8-4.2,3.5-4.5,3.9-.3.4-3.4,3.1-7,6.1-3.6,2.9-9.6,8.1-13.4,11.4-3.8,3.4-9.7,8.6-13.1,11.6-3.4,3-7.4,6.6-9.1,7.9-1.6,1.3-4.9,4.3-7.4,6.5-2.5,2.3-7.7,6.8-11.4,10.1-3.8,3.3-7.6,6.4-8.5,6.9s-4.1,3.3-7.1,6.2c-3,2.8-7.1,6.5-9,8-1.9,1.6-5.9,5.1-8.8,7.9-3,2.7-6.4,5.6-7.6,6.4-1.1.8-4.6,3.8-7.6,6.7s-7.1,6.5-9,8.1c-1.9,1.5-5.8,4.9-8.5,7.5-2.8,2.6-5.3,4.8-5.7,4.8s-1.7,1-3,2.2c-1.3,1.3-5.7,5.2-9.8,8.8s-8.4,7.4-9.5,8.5-4.3,3.8-7,6c-2.8,2.2-7.5,6.3-10.5,9.1-3,2.9-7.1,6.5-9,8-1.9,1.6-5.2,4.5-7.4,6.4-2.1,1.9-4.8,4.2-6,5-1.1.8-4.1,3.3-6.6,5.6-2.5,2.3-6.3,5.7-8.5,7.5-2.3,1.9-6.1,5.3-8.5,7.6-2.5,2.3-5.9,5.2-7.5,6.4-1.6,1.3-5.5,4.7-8.5,7.5-3,2.9-7.1,6.5-9,8-1.9,1.6-3.9,3.4-4.5,4-.6.6-3.2,2.8-6,5-2.7,2.1-5.2,4.2-5.5,4.5-.3.3-3,2.8-6.1,5.5-3,2.7-8.1,7.1-11.4,9.9-3.2,2.7-6.8,5.6-7.9,6.4-1.2.8-4.8,4.1-8.1,7.2-3.3,3.2-7.4,6.8-9,8.1-1.6,1.2-4.4,3.5-6,5-1.6,1.4-4.7,3.9-6.7,5.5-2,1.5-7,5.7-11,9.2-4,3.6-8.8,8.3-10.7,10.5-1.9,2.3-4.2,5.9-5.2,8.1-1.3,2.8-1.9,6.4-1.9,12.2,0,7.5.3,8.9,3.3,14.5,2.7,5.2,4.2,6.9,8.7,9.5,3.6,2.1,8,3.7,12.5,4.4,4.6.8,12.4.9,22.5.5,8.5-.3,18.5-1,22.2-1.4l6.7-.7c-.9,194.5-1.4,277.8-1.8,310.5-.3,32.7-.4,74-.1,91.7l.5,32.3c5,4.6,7.7,6.3,9.3,6.6,1.5.3,3.4.8,4.2,1,.8.3,36.1,1.4,78.5,2.5,50.5,1.3,90.4,1.8,116,1.5,14.51-.2,28.69-.45,37.61-.68.32-.14.69-.25,1.09-.32h.1c1.2-.2,5-.4,8.5-.5,3.31-.07,4.97.05,5.71.5.34.14.49.34.49.6.1.7-.5,1.8-1.2,2.5-.13.11-.5.32-1.04.6-.31.24-.63.48-.96.7-1.8,1.1-3.6,2-4,2-.14,0-.26-.08-.38-.21-2.49,1.1-5.49,2.36-8.62,3.61-7.6,3.1-14.8,5.8-16,6-1.3.3-4.8,1.5-7.8,2.6-3,1.2-5.6,2.1-5.7,2.1-.2-.1-1.2.5-2.3,1.1-1.1.7-2,1.7-2,2.3s1,2,2.2,3.2c1.3,1.2,5,3.6,8.3,5.4,3.3,1.8,10.3,4.7,15.5,6.4,5.2,1.8,14,4.2,19.5,5.4,5.5,1.3,11.4,2.6,13,3.1s6.8,1.4,11.5,2,9.1,1.6,9.9,2.3c1.1.9,1.2,3,.6,9.7-.4,4.7-.8,15.9-.8,25s.6,20.8,1.3,26,2.1,11.7,3.1,14.5c1,2.7,2.6,5.9,3.6,7.1,1,1.2,4.3,3.3,7.3,4.7,3.6,1.6,10.3,3.2,19,4.6,7.4,1.1,19.6,2.8,27,3.6,7.4.9,17.1,2,21.5,2.5s16.3,1.1,26.5,1.2c15.3.2,19,0,21.5-1.3,1.6-.9,5-3.8,7.4-6.5s5.9-8.1,7.7-11.9c1.9-3.8,3.9-8.6,4.6-10.5.6-1.9,1.2-3.9,1.3-4.5s.5-1.7.8-2.5,1.1-3.5,1.8-6c.6-2.5,1.3-5.2,1.5-6,.1-.8.8-3,1.3-4.8.6-1.7.9-3.2.6-3.2s-.1-.8.4-1.8c.5-.9,1.2-3.5,1.4-5.7.3-2.2,1.1-6.5,1.7-9.5.6-3,1.3-5.7,1.6-6,.4-.3,6.3-1.1,13.3-1.7,6.9-.7,17.3-2,23.1-2.8s14.5-1.8,19.5-2.1,9.7-1,10.5-1.5c.8-.4,1.7-.6,2-.4.3.3,4.5-.3,9.5-1.1,5-.9,10-2.2,11.3-3,1.2-.8,3.1-1.4,4.2-1.4,1.5,0,2.9,2,6.1,8.7,2.2,4.9,6.8,14.3,10.2,21,3.4,6.7,6.9,13.4,7.7,15,.8,1.6,3.3,5.1,5.5,7.8,2.2,2.8,4.5,5.4,5,6,.6.5,2.4,1.8,4,2.8,1.7,1,4.6,2.5,6.5,3.5,1.9.9,5.8,1.6,8.5,1.6s6.2-.3,7.8-.7c1.5-.4,7.2-2.5,12.7-4.7s10.8-4.4,11.8-5c.9-.5,4-1.9,6.7-3.1,2.8-1.2,13.1-6.1,23-11s20.3-10.1,23-11.7c2.8-1.5,7-4,9.5-5.6s6-4.5,7.8-6.5,3.8-5.4,4.4-7.6c.6-2.3.8-7.8.5-13-.4-5.2-2.1-14.8-4.1-22.5-1.9-7.4-5.9-21-9-30.3-3.1-9.2-5.6-17-5.6-17.5,0-.4,1.8-1.6,4-2.7,2.2-1.1,4-2.3,4-2.8,0-.4.6-.7,1.2-.7.7.1,2-.7,2.8-1.6.8-.9,2.4-2.1,3.5-2.6,1.1-.4,3.8-2.2,6-3.9,2.2-1.6,5.6-4,7.5-5.3,1.9-1.2,4.2-2.9,5-3.7s3.4-2.7,5.8-4.4c2.3-1.7,4.3-3.2,4.2-3.5,0-.3,1.2-1.2,2.7-2.2,1.6-.9,7.8-6.4,13.8-12.2s11.2-10.6,11.5-10.6,3.9,2.4,8,5.5c4.1,3,8.5,5.7,9.7,6,1.3.3,2.3.9,2.3,1.5s.7,1,1.5,1,2.4.9,3.5,2,2.7,2,3.5,2,2.7.9,4.2,2c1.6,1.2,3.4,2.1,4,2,.7,0,2.8,1,4.5,2.3,1.8,1.2,7.1,3.5,11.8,5.1,6.4,2.1,9.5,2.7,12.7,2.2,2.4-.3,6.7-1.7,9.5-3,2.9-1.4,7.4-4.6,10-7.3,2.6-2.6,7.3-8.5,10.5-13s8.2-11.7,11.1-16,8-12,11.2-17.1c3.3-5,6-9.4,6-9.7s1.3-2.4,2.9-4.8c1.6-2.3,4.7-7.8,6.9-12.2,2.2-4.4,4.8-9.8,5.7-12,.9-2.2,1.9-6.3,2.2-9,.5-4.3.1-5.8-2.7-11-1.8-3.3-3.8-6.7-4.5-7.5s-4.5-4.9-8.6-9-9-8.9-10.9-10.5c-1.9-1.7-5.3-4.3-7.5-5.9-2.2-1.6-4.5-3.5-5-4.1s-2.2-1.9-3.8-2.8c-1.5-.9-3.5-2.4-4.5-3.3-.9-.8-3.3-2.5-5.2-3.8-1.9-1.2-3.6-3-3.8-3.9-.1-.9.7-3.8,1.9-6.5,1.1-2.6,3.2-7.1,4.5-10,1.3-2.8,2.4-5.5,2.4-6,0-.4.7-2,1.6-3.7.8-1.7,1.6-3.7,1.8-4.5.2-.8.6-2.8,1.1-4.5.4-1.7,1.1-3.4,1.6-4,.4-.6.9-1.9,1.1-3s.6-2.4,1-3c.3-.6,2.5-7.1,4.8-14.5,2.4-7.4,4.4-14.6,4.6-16,.1-1.4.7-3.6,1.2-5,.9-2.3,1.6-2.6,9.3-3.2,4.6-.4,10.6-1,13.4-1.3,2.7-.3,5.7-.8,6.5-1.1.8-.3,3.3-.8,5.5-1.1,2.2-.2,4.7-.9,5.5-1.4.8-.4,1.7-.6,2-.3.3.3,2.2-.2,4.2-1.1,2.1-.8,3.8-1.3,3.8-1s2.8-.6,6.2-1.9c3.5-1.3,8.2-3.4,10.5-4.5,2.4-1.2,5.8-4,7.6-6.4,1.9-2.3,3.9-5.5,4.6-7.2.9-2.2,1.1-15.9.9-53ZM390,800.84c-27.2-.6-62.5-1.5-78.5-2s-55.5-1.4-88-2-61.8-1.4-65.3-1.8c-3.8-.4-6.6-1.3-7.2-2.2-.4-.8-1.2-10.3-1.6-21s-.4-106.9,0-213.7c.6-188.7.7-194.4,2.5-197,1-1.6,5.2-6,9.2-9.8,4.1-3.9,8.6-7.9,10-9,1.4-1.1,5.9-4.9,9.9-8.5,4-3.6,9.8-8.7,12.9-11.5,3.1-2.7,6.7-6.2,8.1-7.6,1.4-1.4,3.2-3,4.1-3.5s4.7-3.6,8.5-6.9c3.8-3.3,10-8.9,13.9-12.5,3.8-3.6,7.6-7.2,8.5-8.1.8-.8,2.4-2.2,3.6-3,1.1-.8,5.2-4.1,9-7.4,3.8-3.3,9.3-8.2,12.4-11,3-2.7,5.7-5.2,6-5.5.3-.3,1.9-1.6,3.5-2.9,1.6-1.2,5-4.1,7.4-6.4,2.5-2.3,5.8-5.2,7.5-6.5,1.7-1.3,6-5.1,9.6-8.6,3.6-3.4,7.4-6.9,8.6-7.7,1.1-.8,5.2-4.1,8.9-7.4,3.8-3.3,9.4-8.2,12.4-10.9,3.1-2.7,5.8-5.2,6.1-5.6.3-.4,1.2-1.1,2.1-1.6s5-3.8,9-7.4c4.1-3.6,9.8-8.7,12.9-11.5,3-2.7,5.7-5.2,6-5.5.3-.3,2.1-1.7,4-3.2,1.9-1.4,5.1-4.1,7-6,1.9-1.8,4.5-4,5.6-4.8,1.2-.8,4.4-3.5,7.1-6s7.1-6.3,9.9-8.4c2.7-2.2,5.8-4.9,6.9-6.1,1.1-1.2,3-2.8,4.1-3.6,1.2-.8,4.4-3.4,7-5.9,2.7-2.5,6.3-5.6,7.9-6.9,1.6-1.2,5.7-4.6,9-7.4,3.3-2.9,9.6-8.7,14-12.9h0c4.4-4.3,8.5-7.8,9-7.8s3.7,2.5,7,5.6c3.3,3.1,8,7.3,10.4,9.3,2.5,2,7,6,10,9,3.1,2.9,7.2,6.5,9.1,8,1.9,1.4,5,4.1,7,5.9,1.9,1.9,5.5,5,8,7s5.9,5,7.5,6.7c1.6,1.6,5.7,5.3,9,8,3.3,2.8,7.3,6.4,9,8,1.6,1.7,5.7,5.2,9,8,3.3,2.7,7.4,6.3,9,8,1.7,1.6,5.7,5.2,9,8,3.3,2.7,7.4,6.3,9,8,1.7,1.6,5.3,4.8,8,7,2.8,2.2,7,6,9.5,8.4s6.5,6,9,8c2.4,2,6.9,5.9,10,8.8,3,2.9,6.6,6,8,7,1.4.9,3.9,3.1,5.5,4.8s5.7,5.3,9,8c3.3,2.8,7.3,6.4,9,8,1.6,1.7,6.1,5.7,10,9,3.8,3.3,8.8,7.8,11,10s6.7,6.2,10,9c3.3,2.7,6.9,5.8,8,7,1.1,1.1,4.7,4.3,8,7,3.3,2.8,6.9,5.9,8,7,1.1,1.2,4.7,4.3,7.9,7,3.3,2.8,8,7,10.5,9.4,2.5,2.4,6.6,6,9.1,8s6.8,5.9,9.5,8.6,7.2,6.8,10,9c2.7,2.2,8.7,7.6,21.4,20l-.2,139c-.1,107.1-.5,139.6-1.4,141.5-.7,1.4-2.6,4.8-4.3,7.5-1.6,2.8-3.4,5.9-3.8,7-.5,1.1-1.5,2.7-2.3,3.5-.8.9-1.9,2.3-2.4,3.2-.5.8-3.1,4.6-5.8,8.4-2.6,3.8-6.1,8.7-7.8,10.9s-4.9,6.3-7.2,9c-2.3,2.8-8.7,9.7-14.2,15.4s-13.1,12.9-16.8,16c-3.8,3.1-10.5,8.4-15,11.9-4.5,3.4-11.5,8.5-15.4,11.2-4,2.8-7.5,5-7.8,5s-2.2,1-4.2,2.3c-2.1,1.3-7.4,4.3-11.8,6.7-4.4,2.3-8.7,4.6-9.5,5.1-.8.4-4.9,2.3-9,4.2-4.1,1.9-9.5,4.4-12,5.5s-10.6,4.1-18,6.6-18.7,5.8-25,7.5c-6.3,1.6-13.5,3.2-16,3.7-2.5.4-5.2.8-6,.9s-3.1.5-5,.8c-1.9.4-7.3.9-12,1.3-4.7.4-25.8.9-47,1.1s-60.8-.1-88-.7Z"/>
      <path class="cls-4" d="M424.6,854.04c.14-.22.4-.44.73-.67-.33.22-.59.44-.73.67-.6.9-.7,2.1-.3,2.5,0,0,0,0,0,0,0,0,0,0,0,0-.4-.4-.3-1.6.3-2.5Z"/>
      <path class="cls-2" d="M476.5,711.74c3.3-4.6,9-12.4,12.7-17.4,3.7-4.9,8-10.7,9.5-12.8s3.3-4.3,3.8-5c.6-.6,4-5,7.5-9.7,3.6-4.7,9.5-12.3,13.2-17,3.8-4.7,7.1-8.9,7.6-9.5.4-.6,3.7-4.6,7.2-9.1,3.6-4.5,7.9-9.8,9.5-12,1.6-2.1,5.1-6.5,7.7-9.9,2.6-3.3,5.1-6.5,5.6-7,.4-.5,2.3-3,4.2-5.5s3.8-4.7,4.1-5,2.4-2.8,4.5-5.6c2.1-2.8,6.8-8.9,10.4-13.5,3.5-4.6,9.3-12,12.8-16.4s6.9-8.7,7.5-9.5c.7-.8,4.2-5.3,7.7-10,3.6-4.7,9-11.7,12-15.5,3.1-3.8,6.2-8,7-9.1.8-1.2,6.4-8.7,12.5-16.5,6-7.9,12.7-18,14.8-22.4,3.8-7.7,4-8.3,3.3-14.5-.4-3.6-1.4-7.7-2.2-9.2-.8-1.6-2.6-3.7-4.2-4.7-2.6-1.8-6.4-2-85.7-2.8-60-.7-83.6-1.3-85.3-2.1-1.2-.7-2.2-1.8-2.2-2.4,0-.7-1.8-3.1-4.1-5.3l-4.2-4c1-50.4,1.7-77.6,2.1-93,.4-15.4.7-42.5.7-60.2,0-32.1,0-32.2-2.3-34.2-1.6-1.6-3.5-2.1-7.6-2.1-5.1,0-5.5.2-10.5,5.3h0c-2.8,2.8-9,10.4-13.8,16.8-4.9,6.4-10.1,13.3-11.8,15.5-1.6,2.1-4.3,5.5-6,7.5-1.6,2-4.8,6-7,8.9-2.2,2.9-5.8,7.4-8,10-2.2,2.6-6.6,8-9.7,12.1-3.1,4.1-6.5,8.3-7.5,9.4-1,1.1-4.5,5.5-7.8,9.8-3.3,4.3-7.4,9.5-9,11.6s-5.7,7.1-9,11.1-7.1,8.7-8.5,10.5c-1.4,1.8-4.3,5.7-6.6,8.6-2.2,3-4.7,6.1-5.5,6.9-.8.8-3.2,3.7-5.4,6.4-2.2,2.8-4.5,5.5-5,6-.6.6-1.7,2-2.5,3.2-.8,1.1-3.8,4.7-6.7,8-2.8,3.2-9.1,10.9-14,17-4.8,6.1-11.1,13.7-13.8,16.9-2.8,3.2-6.6,7.7-8.5,9.9-2,2.3-4.9,5.8-6.5,8-1.7,2.1-3.9,5-5,6.5s-3.7,4.7-5.7,7.2c-2,2.4-7.4,8.9-12,14.4s-10.1,12.3-12.3,15c-2.2,2.7-5.4,7-7.2,9.5-1.8,2.5-4.6,6.8-6.2,9.5-1.7,2.8-3,6.1-3,7.5,0,1.67,1.47,3.93,4.4,6.8,3.8,3.6,5.3,4.3,9.7,4.7,2.9.3,25.1.8,49.3,1.1,9.65.12,20.87.29,31.99.46,0-.02,0-.04.01-.06.4-.5,2.9-.9,5.8-.9,2.9.1,6.6.5,8.2.9.47.11.74.21.82.31,11.28.19,21.61.37,28.98.49l31.8.7c4.2,4.8,7.5,7.2,10.1,8.4l4.8,2.1c0,70.9-.5,107.7-1.1,127.5-.5,19.8-1.1,42.8-1.2,51.2-.2,14,0,15.3,1.8,17,1.1,1,3.4,2.8,5,3.9,1.6,1.1,4.9,2.8,7.2,3.7,3.9,1.5,4.7,1.6,8.5.2,2.4-.8,6.5-3.4,9.2-5.7,2.7-2.4,7.5-8.1,10.6-12.8s7.2-10.6,9.1-13.1c1.9-2.5,6.1-8.4,9.4-13Z"/>
      <path class="cls-2" d="M341.5,540.84c-1.6-.4-5.3-.8-8.2-.9-2.9,0-5.4.4-5.8.9-.01.02,0,.04-.01.06,5.02.08,10.01.16,14.83.24-.08-.09-.35-.19-.82-.31Z"/>
    </g>
  </g>
</svg>